<?xml version="1.0" encoding="UTF-8" standalone="no"?>
<!-- Created with Inkscape (http://www.inkscape.org/) -->

<svg
   width="112.57125mm"
   height="123.65233mm"
   viewBox="0 0 112.57125 123.65233"
   version="1.1"
   id="svg1"
   xml:space="preserve"
   inkscape:export-filename="ISOcube_v5.pdf"
   inkscape:export-xdpi="500"
   inkscape:export-ydpi="500"
   inkscape:version="1.3.2 (1:1.3.2+202311252150+091e20ef0f)"
   sodipodi:docname="ISO-cube_v4.svg"
   xmlns:inkscape="http://www.inkscape.org/namespaces/inkscape"
   xmlns:sodipodi="http://sodipodi.sourceforge.net/DTD/sodipodi-0.dtd"
   xmlns="http://www.w3.org/2000/svg"
   xmlns:svg="http://www.w3.org/2000/svg"><sodipodi:namedview
     id="namedview1"
     pagecolor="#ffffff"
     bordercolor="#eeeeee"
     borderopacity="1"
     inkscape:showpageshadow="0"
     inkscape:pageopacity="0"
     inkscape:pagecheckerboard="0"
     inkscape:deskcolor="#505050"
     inkscape:document-units="mm"
     inkscape:zoom="1.4538721"
     inkscape:cx="249.67808"
     inkscape:cy="242.11208"
     inkscape:window-width="1850"
     inkscape:window-height="1016"
     inkscape:window-x="70"
     inkscape:window-y="27"
     inkscape:window-maximized="1"
     inkscape:current-layer="layer1" /><defs
     id="defs1"><marker
       style="overflow:visible"
       id="marker16"
       refX="0"
       refY="0"
       orient="auto-start-reverse"
       inkscape:stockid="Triangle arrow"
       markerWidth="1"
       markerHeight="1"
       viewBox="0 0 1 1"
       inkscape:isstock="true"
       inkscape:collect="always"
       preserveAspectRatio="xMidYMid"><path
         transform="scale(0.5)"
         style="fill:context-stroke;fill-rule:evenodd;stroke:context-stroke;stroke-width:1pt"
         d="M 5.77,0 -2.88,5 V -5 Z"
         id="path16" /></marker><marker
       style="overflow:visible"
       id="Triangle"
       refX="0"
       refY="0"
       orient="auto-start-reverse"
       inkscape:stockid="Triangle arrow"
       markerWidth="1"
       markerHeight="1"
       viewBox="0 0 1 1"
       inkscape:isstock="true"
       inkscape:collect="always"
       preserveAspectRatio="xMidYMid"><path
         transform="scale(0.5)"
         style="fill:context-stroke;fill-rule:evenodd;stroke:context-stroke;stroke-width:1pt"
         d="M 5.77,0 -2.88,5 V -5 Z"
         id="path135" /></marker><marker
       style="overflow:visible"
       id="DartArrow"
       refX="0"
       refY="0"
       orient="auto-start-reverse"
       inkscape:stockid="Dart arrow"
       markerWidth="1"
       markerHeight="1"
       viewBox="0 0 1 1"
       inkscape:isstock="true"
       inkscape:collect="always"
       preserveAspectRatio="xMidYMid"><path
         style="fill:context-stroke;fill-rule:evenodd;stroke:none"
         d="M 0,0 5,-5 -12.5,0 5,5 Z"
         transform="scale(-0.5)"
         id="path11" /></marker><inkscape:perspective
       sodipodi:type="inkscape:persp3d"
       inkscape:vp_x="326.69086 : -329.33443 : 1"
       inkscape:vp_y="1052.2955 : -7971.7444 : 0"
       inkscape:vp_z="815.84902 : 282.96725 : 1"
       inkscape:persp3d-origin="519.18131 : 371.41772 : 1"
       id="perspective60" /><inkscape:perspective
       sodipodi:type="inkscape:persp3d"
       inkscape:vp_x="450.42507 : 178.31667 : 1"
       inkscape:vp_y="90.708494 : 4306.9585 : 0"
       inkscape:vp_z="-189.3028 : 110.12658 : 1"
       inkscape:persp3d-origin="1181.5006 : -200.0815 : 1"
       id="perspective9" /><filter
       inkscape:collect="always"
       style="color-interpolation-filters:sRGB"
       id="filter11"
       x="-0.014240502"
       y="-0.01511258"
       width="1.028481"
       height="1.0302251"><feGaussianBlur
         inkscape:collect="always"
         stdDeviation="0.50740112"
         id="feGaussianBlur11" /></filter></defs><g
     inkscape:label="Layer 1"
     inkscape:groupmode="layer"
     id="layer1"
     transform="translate(-81.1615, -31.6804)"><g
       id="g64"
       transform="translate(21.745265,105.91006)"><path
         style="fill:none;stroke:#000000;stroke-width:0.481917;stroke-linecap:butt;stroke-linejoin:miter;stroke-dasharray:none;stroke-opacity:1"
         d="m 106.00847,2.4812828 0.16611,5.0685"
         id="path3" /><g
         id="g63"><path
           style="fill:none;stroke:#000000;stroke-width:0.465;stroke-linecap:butt;stroke-linejoin:miter;stroke-dasharray:none;stroke-opacity:1"
           d="m 87.454193,-45.118791 5.58681,-9.275976"
           id="path4" /><path
           style="fill:none;stroke:#000000;stroke-width:0.37143;stroke-linecap:butt;stroke-linejoin:miter;stroke-dasharray:none;stroke-opacity:1"
           d="m 104.43812,-53.964692 2.30104,-0.388226"
           id="path5" /><g
           id="g62"
           transform="translate(-11.221841,-91.009808)"><path
             style="fill:#000000"
             d="m 104.13692,125.95883 c -3.70857,-0.55699 -5.820831,-1.31981 -5.820831,-2.10214 0,-0.34211 0.11032,-0.32392 0.66066,0.10898 0.80298,0.63163 3.297891,1.25171 7.012261,1.74282 l 2.77812,0.36732 -1.98437,-0.009 c -1.09141,-0.005 -2.28203,-0.0535 -2.64584,-0.10816 z m 15.80886,-3.09138 c -0.10914,-0.26657 -0.19844,-0.71611 -0.19844,-0.99898 v -0.51433 l -0.78061,0.40367 c -0.90496,0.46798 -1.33606,0.51285 -1.33606,0.13909 0,-0.14552 0.17157,-0.26458 0.38126,-0.26458 0.2097,0 0.4578,-0.12384 0.55134,-0.27519 0.10928,-0.17682 -0.0625,-0.21682 -0.48052,-0.1119 l -0.65059,0.16329 -0.156,-1.40946 c -0.0858,-0.7752 -0.23381,-2.45125 -0.32891,-3.72456 -0.13905,-1.86176 -0.25486,-2.3151 -0.59141,-2.3151 -0.33724,0 -0.3534,-0.0642 -0.0832,-0.33073 0.26865,-0.26497 0.40273,-0.23949 0.67439,0.12818 0.45626,0.6175 0.60084,0.40357 0.47217,-0.6986 l -0.10709,-0.91732 -0.67044,0.2549 c -2.15373,0.81885 -12.31357,0.80321 -14.48481,-0.0223 -0.92639,-0.35221 -0.93036,-0.35102 -0.93036,0.27856 0,0.31369 -0.11805,0.47182 -0.27829,0.37279 -0.15305,-0.0946 -0.25416,-0.48857 -0.22468,-0.87551 0.0295,-0.38694 0.0358,-1.06071 0.0141,-1.49727 l -0.0395,-0.79375 -5.490465,0.34916 c -11.256487,0.71584 -12.346921,0.55448 -14.145665,-2.09321 -1.158711,-1.70558 -2.039813,-4.22052 -2.094537,-5.97847 -0.0218,-0.70032 -0.159493,-1.42553 -0.305982,-1.61156 -0.722134,-0.917089 0.17864,-5.600479 1.237328,-6.433239 0.341488,-0.26862 0.698049,-0.8742 0.792358,-1.34574 0.238194,-1.19097 2.577657,-3.40128 4.263534,-4.028151 1.594844,-0.59303 1.893381,-0.82827 1.326959,-1.04563 -0.28372,-0.10887 -0.364424,-0.0609 -0.238964,0.14212 0.127663,0.20657 0.04139,0.24971 -0.264584,0.13229 -0.305968,-0.11741 -0.392246,-0.0743 -0.264583,0.1323 0.124998,0.20225 0.04542,0.25124 -0.233955,0.14404 -0.238447,-0.0915 -0.72579,0.0754 -1.11567,0.38208 -0.380753,0.2995 -0.766614,0.470211 -0.857468,0.379351 -0.346095,-0.346091 2.144246,-1.867331 2.704788,-1.652231 0.191017,0.0733 0.913568,-0.0372 1.60567,-0.24544 0.692101,-0.20829 1.60378,-0.37871 2.025952,-0.37871 0.695872,0 0.754138,-0.068 0.623645,-0.72761 -0.377737,-1.90942 -2.110988,-8.680568 -2.251922,-8.797395 -0.08777,-0.07276 -0.193665,-0.766955 -0.235313,-1.542655 -0.04165,-0.7757 -0.188196,-1.706186 -0.325661,-2.067745 -0.326248,-0.858097 -0.319034,-1.490618 0.01465,-1.284391 0.145521,0.08994 0.264584,0.444229 0.264584,0.787316 0,0.343087 0.135167,0.668851 0.300372,0.723919 0.178451,0.05948 0.287778,0.6591 0.269345,1.477257 -0.01706,0.757423 0.08589,1.377133 0.228795,1.377133 0.142902,0 0.259821,0.160301 0.259821,0.356225 0,0.195923 0.166228,0.701939 0.369396,1.124479 0.203167,0.42254 0.44986,1.452863 0.548205,2.289608 0.09834,0.836745 0.280766,1.521354 0.405379,1.521354 0.124614,0 0.373843,0.68461 0.553843,1.521355 0.18,0.83674 0.410246,1.64042 0.511659,1.78594 0.101412,0.14552 0.260878,0.58513 0.354368,0.97691 l 0.169982,0.71233 -1.125687,0.10134 c -0.890156,0.0801 -0.77969,0.11101 0.527959,0.14757 0.909505,0.0254 1.653646,-0.004 1.653646,-0.0663 0,-0.0619 -0.462174,-1.63948 -1.027053,-3.505733 -0.564879,-1.866251 -1.652399,-5.536308 -2.41671,-8.155683 -0.764311,-2.619375 -1.508016,-4.838486 -1.652677,-4.931357 -0.144662,-0.09287 -0.189765,-0.287387 -0.100229,-0.432258 0.08953,-0.144871 -0.01299,-0.842792 -0.227823,-1.550936 -0.214837,-0.708143 -0.391902,-1.724882 -0.393477,-2.25942 -0.0036,-1.220577 -0.984944,-2.452915 -2.180496,-2.738185 -0.72167,-0.172197 -0.769358,-0.224374 -0.287672,-0.314748 1.418167,-0.266076 2.99447,1.438521 2.99447,3.238187 0,1.03086 0.435129,0.554892 0.634916,-0.694506 0.546006,-3.414531 -3.483082,-5.889395 -7.992675,-4.909494 -0.772549,0.167869 -1.386588,0.41603 -1.364532,0.551469 0.02206,0.135438 -0.365033,0.454099 -0.860199,0.708134 -1.371647,0.703697 -3.563511,2.789265 -3.791929,3.608036 -0.382668,1.371685 0.36464,3.334756 1.57019,4.124663 l 0.66167,0.433543 0.08389,-1.120731 0.08389,-1.120731 0.138039,1.139951 c 0.203842,1.683351 -0.249672,1.858346 -1.54877,0.597616 -0.706115,-0.685263 -1.141191,-1.379516 -1.259403,-2.009641 -0.143152,-0.763064 -0.281178,-0.936401 -0.665597,-0.835873 -0.462821,0.12103 -2.17229,-0.337691 -2.507452,-0.672853 -0.0875,-0.0875 0.302987,-0.09711 0.86774,-0.02136 l 1.026823,0.137726 0.06186,-1.048385 c 0.03402,-0.576611 0.469489,-2.319458 0.967702,-3.872992 0.498213,-1.553534 0.840345,-3.028983 0.760293,-3.278775 -0.123635,-0.385788 -0.102565,-0.394413 0.139942,-0.05729 0.243126,0.337982 0.286092,0.321622 0.289542,-0.110243 0.0022,-0.278915 0.06822,-0.442954 0.146638,-0.364531 0.07842,0.07842 -0.100171,1.018608 -0.396875,2.0893 -0.296704,1.070692 -0.539393,2.008637 -0.53931,2.084323 8.4e-5,0.07569 0.446568,-0.747746 0.992188,-1.829847 0.980343,-1.944267 1.65514,-2.635758 1.65175,-1.692613 -9.58e-4,0.266788 -0.244728,0.842257 -0.541709,1.278819 -0.296981,0.436563 -0.727351,1.150938 -0.956377,1.5875 l -0.416412,0.79375 0.891975,-0.791699 c 1.439636,-1.277792 1.446634,-1.284849 1.049532,-1.058319 -0.251033,0.143204 -0.309488,0.111473 -0.180155,-0.09779 0.1053,-0.170379 0.283787,-0.252715 0.396639,-0.182969 0.112851,0.06975 0.848765,-0.123658 1.635363,-0.429787 1.635221,-0.636396 6.067176,-0.774774 6.589554,-0.205744 0.07276,0.07926 0.581758,0.404424 1.131105,0.72259 1.051928,0.609247 1.091418,0.121994 0.05952,-0.734405 -0.559423,-0.46428 -1.01516,-1.322916 -0.702162,-1.322916 0.539278,0 1.856089,1.702053 2.161933,2.79442 0.567056,2.025326 0.870145,1.072358 0.711224,-2.236224 -0.147593,-3.072736 -0.438585,-4.54921 -1.054519,-5.350558 -0.510207,-0.663795 -9.906196,-0.999542 -10.150571,-0.36271 -0.118545,0.308921 -0.224214,0.34545 -0.360661,0.124674 -0.12165,-0.196833 -0.298564,-0.0094 -0.478583,0.506982 -0.436926,1.253365 -0.563001,0.97432 -0.197677,-0.437522 0.282962,-1.093542 0.408266,-1.249016 0.964774,-1.197065 0.351767,0.03284 3.19942,0.127982 6.328117,0.211431 3.128698,0.08345 6.075495,0.210805 6.548438,0.283013 1.00049,0.152752 1.180777,0.598932 0.198437,0.491098 -0.776782,-0.08527 -0.758119,-0.145265 -0.296404,0.952832 l 0.365055,0.868209 0.181942,-0.573249 c 0.100068,-0.315286 0.333401,-0.573248 0.518517,-0.573248 0.185117,0 0.472197,-0.297656 0.637957,-0.661458 0.380279,-0.834623 0.945089,-0.887989 0.700065,-0.06615 l -0.177487,0.595312 0.419212,-0.529166 c 0.362127,-0.457109 0.45543,-0.475123 0.685179,-0.132292 0.223444,0.333423 0.371663,0.269971 0.927074,-0.396875 1.030337,-1.23706 4.637852,-6.67628 4.637852,-6.992709 0,-0.155833 0.17153,-0.283333 0.38118,-0.283333 0.33146,0 0.33168,0.09491 0.002,0.727604 -0.20875,0.400183 -0.38029,0.876433 -0.38118,1.058334 -9e-4,0.181901 -0.1207,0.330729 -0.26622,0.330729 -0.14552,0 -0.26458,0.179681 -0.26458,0.399292 0,0.564386 -2.6694,4.634562 -3.8095,5.808558 -0.52415,0.539731 -0.953,1.091178 -0.953,1.22544 0,0.407271 -1.056314,-0.38705 -1.085416,-0.816206 -0.0149,-0.219656 -0.12315,0.0083 -0.240565,0.50647 -0.227953,0.967253 0.06833,2.136863 0.541297,2.136863 0.157711,0 0.220873,0.106586 0.14036,0.236859 -0.171987,0.27828 0.376046,0.526534 0.819632,0.371285 0.224974,-0.07874 0.207644,-0.299247 -0.06452,-0.820921 -0.204663,-0.392296 -0.372849,-0.802562 -0.373745,-0.911703 -0.0031,-0.372712 0.80833,-0.199474 0.963843,0.205788 0.426946,1.112604 1.089527,0.949511 1.91832,-0.472188 1.01125,-1.734701 1.06009,-1.273118 0.0868,0.820103 l -0.7336,1.577683 -0.489298,-0.357784 c -0.413685,-0.302494 -0.548565,-0.29852 -0.872798,0.02571 -0.210924,0.210924 -0.510428,0.383498 -0.665564,0.383498 -0.528818,0 1.673091,1.55531 2.82438,1.994993 0.78814,0.30099 1.59077,0.394473 2.56266,0.298473 2.285131,-0.225717 2.696901,-0.329636 2.879611,-0.726736 0.0952,-0.206858 0.31433,-0.64833 0.48701,-0.981049 0.33683,-0.648988 -0.18316,-1.851812 -0.6242,-1.443894 -0.35391,0.327336 0.71868,-1.349771 1.24667,-1.949298 0.60236,-0.683966 8.97198,-14.442022 8.85616,-14.557837 -0.0455,-0.04554 -0.50274,0.03314 -1.01599,0.174855 -2.01991,0.557723 -5.19862,-0.739607 -6.52948,-2.664883 -0.49574,-0.717158 -0.90906,-1.03053 -1.37112,-1.039578 -0.36381,-0.0071 -1.08789,-0.0835 -1.60908,-0.169719 l -0.94761,-0.156765 -1.673681,2.827877 c -1.77284,2.995438 -2.08197,3.255029 -4.179755,3.510025 -2.840348,0.345258 -9.816839,-4.974354 -7.663316,-5.843319 0.197576,-0.07972 0.144314,-0.141862 -0.132291,-0.154341 -0.536203,-0.02419 -0.615448,-0.629619 -0.132292,-1.010703 0.856999,-0.675949 4.507305,-0.391375 4.209627,0.328178 -0.116006,0.280411 0.685103,0.727137 1.455653,0.811722 0.719762,0.07901 2.264729,1.128457 2.086301,1.417159 -0.0693,0.112125 0.242046,0.549505 0.691873,0.971956 0.449827,0.422451 1.02702,1.104181 1.28265,1.514956 l 0.46479,0.746865 0.93531,-1.540615 c 0.51441,-0.847338 0.97478,-1.718777 1.02304,-1.936532 0.0482,-0.217755 0.26633,-0.554006 0.48461,-0.747225 0.21828,-0.193219 0.24805,-0.27592 0.0661,-0.18378 -0.2058,0.104245 -0.33073,-0.01745 -0.33073,-0.322165 0,-0.269332 -0.55956,-1.020499 -1.24347,-1.669261 -0.68391,-0.648762 -1.08605,-0.971208 -0.89365,-0.716547 0.19241,0.254662 0.24595,0.466641 0.11899,0.471067 -0.12696,0.0044 -0.0225,0.129403 0.23219,0.27773 0.54653,0.318323 0.58528,0.986211 0.0947,1.632453 -0.42888,0.564978 -0.78691,0.587013 -1.21217,0.07461 -0.1773,-0.213629 -0.40023,-0.371445 -0.495417,-0.350702 -1.026906,0.223787 -2.075018,-1.192413 -1.515018,-2.04708 0.349156,-0.53288 0.341927,-0.638329 -0.06927,-1.010453 l -0.459103,-0.415483 -0.336799,0.5393 c -0.259775,0.415967 -0.265408,0.62532 -0.02463,0.915442 0.253161,0.30504 0.206018,0.376142 -0.249393,0.376142 -0.669141,0 -0.71984,-0.513956 -0.157894,-1.600639 0.478579,-0.925471 0.578741,-0.944178 1.321118,-0.246751 0.488604,0.45902 0.568268,0.472683 0.568268,0.09747 0,-1.00994 -3.744234,-2.15726 -4.239993,-1.299232 -1.546003,2.675724 -2.049694,3.313506 -2.613839,3.309688 -0.353307,-0.0024 -0.474979,-0.08371 -0.296922,-0.198438 0.630017,-0.405953 2.319227,-3.645338 2.250907,-4.316547 -0.03827,-0.376017 0.119934,-0.839775 0.35226,-1.032588 0.231955,-0.192506 0.845366,-1.107531 1.363135,-2.033388 3.089487,-5.524519 5.124733,-8.506807 5.124733,-7.509385 0,0.152752 -0.20836,0.281517 -0.46302,0.286145 l -0.46302,0.0084 0.50199,0.379985 c 0.2761,0.208991 0.60867,0.314061 0.73904,0.233487 0.29814,-0.184261 2.12145,1.183009 1.94922,1.461687 -0.30222,0.489005 5.463168,4.948269 5.982578,4.627254 0.1659,-0.102531 0.23156,-0.07304 0.14592,0.06553 -0.0856,0.138573 -0.0395,0.424859 0.10244,0.636193 0.22339,0.332493 0.25087,0.330792 0.20403,-0.01263 -0.0965,-0.707144 0.34425,-1.852084 0.7129,-1.852084 1.63449,0 1.35503,8.058089 -0.34973,10.084079 l -0.66702,0.792715 0.72823,0.760111 c 1.11661,1.165491 3.11147,1.918627 4.80256,1.813152 0.79349,-0.04949 1.45974,0.02819 1.50939,0.175985 0.0744,0.221417 1.58839,-1.925931 1.82713,-2.591443 0.0415,-0.115607 0.34153,-0.230241 0.6668,-0.254742 0.51458,-0.03876 0.59139,-0.193892 0.59139,-1.194484 0,-0.640952 -0.10883,-1.082673 -0.24589,-0.99797 -0.14471,0.08944 -0.205,-0.47567 -0.14652,-1.373448 0.0547,-0.838977 0.0299,-1.227757 -0.055,-0.863954 -0.12767,0.547095 -1.21826,-4.002003 -1.45136,-6.053949 -0.0327,-0.287681 -0.42485,-0.333268 -1.84369,-0.214318 -1.14604,0.09608 -1.86541,0.0488 -1.97583,-0.129864 -0.1083,-0.175244 -0.69216,-0.220011 -1.55177,-0.118981 -1.64626,0.193485 -1.82567,0.06942 -1.31835,-0.911628 0.46501,-0.899225 0.4838,-2.029201 0.0462,-2.779751 -0.86781,-1.488506 -2.80613,-3.13566 -2.86127,-2.431463 -0.0145,0.185256 -0.10884,0.03917 -0.20964,-0.32463 -0.18367,-0.662863 -2.04019,-1.803329 -2.98951,-1.836466 -0.24608,-0.0086 -0.515288,-0.125447 -0.598248,-0.259684 -0.19085,-0.308804 1.572148,0.165676 2.633148,0.708664 3.57501,1.829587 5.41927,4.575537 4.51334,6.719998 -0.19139,0.453062 0.47772,0.552822 5.80541,0.865546 6.03125,0.354021 7.19584,1.162242 7.47159,5.185243 0.21256,3.101203 -1.06008,6.343783 -2.48979,6.343783 -0.2035,0 0.0409,-0.360765 0.54308,-0.8017 2.01065,-1.765368 2.357,-6.872703 0.60169,-8.872489 -0.5515,-0.628314 -0.80925,-0.702623 -4.53907,-1.308611 -0.43656,-0.07093 -0.67469,-0.03983 -0.52917,0.06911 0.14553,0.108937 0.28896,0.376661 0.31875,0.594942 0.0298,0.218282 0.28815,1.706563 0.57414,3.307292 0.286,1.600729 0.57675,3.78876 0.64613,4.862291 0.0719,1.112713 0.26377,2.036942 0.44629,2.14974 0.49904,0.308427 -0.17275,0.609243 -0.93393,0.418197 -0.48193,-0.120955 -0.72917,-0.0136 -1.00897,0.438112 -8.01976,12.947041 -10.36245,17.053989 -10.39181,18.217729 -0.10497,4.161862 -7.977839,10.581987 -13.522236,11.027038 -2.643204,0.212171 -2.979875,-1.7197 3.523309,20.217287 0.07255,0.24473 0.645356,0.74587 1.2729,1.11363 1.278139,0.74904 1.774139,1.392358 2.266239,2.939308 0.18516,0.58208 0.43237,1.16247 0.54934,1.28975 0.27305,0.2971 3.162978,-0.056 3.162978,-0.38646 0,-0.13709 0.26789,-0.66652 0.59531,-1.17652 l 0.59532,-0.92727 1.4552,0.15583 c 6.52822,0.69911 11.84205,1.51002 12.52804,1.91183 1.25988,0.73795 1.90585,1.77357 1.55742,2.49687 l -0.29131,0.60472 -0.0179,-0.81377 c -0.0223,-1.01301 -1.04037,-2.06304 -1.73997,-1.79458 -0.32012,0.12284 -0.42056,0.0863 -0.29978,-0.10914 0.12553,-0.20311 -0.096,-0.24882 -0.71725,-0.14801 -0.79262,0.12863 -3.96605,-0.1728 -6.45517,-0.61314 -0.65322,-0.11556 -0.8599,-0.0574 -0.8599,0.2418 0,0.55977 -0.64943,1.02666 -1.15709,0.83185 -0.55932,-0.21463 -0.54678,-0.62333 0.0326,-1.06316 l 0.46302,-0.35148 -0.59531,-0.008 c -0.46658,-0.007 -0.60311,0.14893 -0.63134,0.71919 -0.0278,0.56098 -0.0611,0.60041 -0.14547,0.17218 -0.0828,-0.42018 -0.31562,-0.56016 -0.95616,-0.57486 l -0.84672,-0.0194 0.79375,0.3738 c 0.68278,0.32154 0.70127,0.35434 0.13229,0.23464 -0.3638,-0.0765 0.0418,0.22589 0.90135,0.67206 0.85954,0.44618 1.75251,0.84979 1.98438,0.89691 0.23186,0.0471 0.89781,0.29478 1.4799,0.55035 2.10324,0.92346 7.95263,3.52718 8.59896,3.82763 l 0.66145,0.30748 -0.0485,6.933009 -0.0485,6.93301 0.92125,3.04271 c 0.50669,1.67349 1.1006,3.54002 1.3198,4.14785 0.40108,1.11217 0.43836,4.41311 0.0388,3.43728 z m -2.13872,-2.20527 c -0.097,-0.097 -0.17639,-0.0176 -0.17639,0.17639 0,0.19402 0.0794,0.2734 0.17639,0.17638 0.097,-0.097 0.097,-0.25576 0,-0.35277 z m 1.52816,-0.0635 c 0.0815,-0.13195 -0.09,-0.1776 -0.38126,-0.10144 -0.6178,0.16156 -0.6959,0.34135 -0.14828,0.34135 0.2097,0 0.44799,-0.10796 0.52954,-0.23991 z m -0.51338,-0.55405 c 0.48255,-0.18346 0.65672,-0.40693 0.5671,-0.7276 -0.0711,-0.25455 -0.32181,-1.15164 -0.55704,-1.99354 -0.26319,-0.94192 -0.53649,-1.46348 -0.71052,-1.35593 -0.18707,0.11562 -0.22257,-0.038 -0.10485,-0.45365 0.13927,-0.49178 0.11602,-0.54214 -0.10689,-0.23157 -0.32543,0.45339 -0.32255,5.02708 0.003,5.02708 0.11692,0 0.52598,-0.11916 0.90903,-0.26479 z m -0.662,-3.57167 c 0,-0.0728 0.0595,-0.13229 0.13229,-0.13229 0.0728,0 0.13229,0.0595 0.13229,0.13229 0,0.0728 -0.0595,0.13229 -0.13229,0.13229 -0.0728,0 -0.13229,-0.0595 -0.13229,-0.13229 z m -0.27269,-2.11667 c 0,-0.14552 -0.11541,-0.086 -0.25648,0.1323 -0.14106,0.21828 -0.25648,0.51593 -0.25648,0.66145 0,0.14553 0.11542,0.086 0.25648,-0.13229 0.14107,-0.21828 0.25648,-0.51593 0.25648,-0.66146 z m -2.06019,-2.39686 c 0.69119,-0.16707 1.18479,-0.82393 0.86172,-1.14673 -0.0884,-0.0883 -0.89486,-0.10401 -1.79217,-0.0349 -2.17356,0.16746 -7.7323,0.171 -10.36271,0.007 l -2.11667,-0.13229 -0.0867,0.61163 c -0.056,0.39481 0.0378,0.59105 0.26458,0.55358 0.1932,-0.0319 0.52986,0.0157 0.74814,0.10578 1.02479,0.42302 10.76663,0.45136 12.48379,0.0363 z m -25.807626,-1.9867 c 1.484055,-0.55472 1.824669,-4.82329 0.634765,-7.95486 -0.587656,-1.54659 -0.524277,-2.130589 0.07545,-0.69524 1.087069,2.60173 1.449706,5.75629 0.853789,7.42709 l -0.359523,1.00801 1.450233,-0.18119 c 0.797628,-0.0997 2.89941,-0.25561 4.67062,-0.34656 l 3.220382,-0.16535 0.631,-1.85209 c 1.41884,-4.16454 0.31922,-13.215549 -1.699702,-13.990279 -0.66377,-0.25471 -1.92415,-0.19508 -2.1063,0.0997 -0.63722,1.03104 -2.683328,-0.24002 -2.936663,-1.82429 -0.2585,-1.61657 -0.383577,-1.69695 -2.841447,-1.82595 -2.629532,-0.13802 -5.055925,0.46901 -7.120329,1.78133 -1.578671,1.00355 -1.573537,1.13541 0.0359,0.92191 0.710969,-0.0943 1.49794,-0.0566 1.748825,0.0838 0.350872,0.19636 0.09832,0.29738 -1.094232,0.43768 -2.846492,0.33488 -4.467656,0.61518 -3.799346,0.65691 0.375213,0.0234 0.537175,0.12543 0.374263,0.23569 -0.157958,0.10691 -0.43404,0.43251 -0.613517,0.72355 l -0.326321,0.52917 0.125821,-0.59568 c 0.0692,-0.32762 0.01786,-0.52895 -0.114088,-0.4474 -0.131949,0.0816 -0.241731,0.3496 -0.24396,0.59567 -0.0032,0.35819 -0.05023,0.37449 -0.235619,0.0818 -0.715572,-1.12983 -1.849108,4.20481 -1.213412,5.710549 0.110504,0.26175 0.179902,0.89262 0.154218,1.40195 -0.05688,1.12785 0.996951,4.29868 1.898368,5.71195 1.245374,1.95253 1.70817,2.21167 4.392081,2.45933 1.338795,0.12354 2.510937,0.30138 2.60476,0.3952 0.164435,0.16443 0.631958,0.067 1.833984,-0.38234 z m -8.901162,-3.55394 c 0,-0.0728 0.05953,-0.13229 0.132292,-0.13229 0.07276,0 0.132292,0.0595 0.132292,0.13229 0,0.0728 -0.05953,0.1323 -0.132292,0.1323 -0.07276,0 -0.132292,-0.0595 -0.132292,-0.1323 z m 0,-1.32291 c 0,-0.0728 0.05953,-0.13229 0.132292,-0.13229 0.07276,0 0.132292,0.0595 0.132292,0.13229 0,0.0728 -0.05953,0.13229 -0.132292,0.13229 -0.07276,0 -0.132292,-0.0595 -0.132292,-0.13229 z m -1.058333,-1.32294 c 0,-0.0728 0.05953,-0.13229 0.132292,-0.13229 0.07276,0 0.132291,0.0595 0.132291,0.13229 0,0.0728 -0.05953,0.13229 -0.132291,0.13229 -0.07276,0 -0.132292,-0.0595 -0.132292,-0.13229 z m 5.203472,-0.30868 c -0.336825,-0.33683 -0.174049,-1.35539 0.242126,-1.5151 0.736729,-0.2827 0.851485,-0.17954 0.851485,0.76545 0,0.89116 -0.56488,1.27838 -1.093611,0.74965 z m 0.617361,-1.01424 c 0,-0.0728 -0.05953,-0.13229 -0.132291,-0.13229 -0.07276,0 -0.132292,0.0595 -0.132292,0.13229 0,0.0728 0.05953,0.1323 0.132292,0.1323 0.07276,0 0.132291,-0.0595 0.132291,-0.1323 z m 4.233334,-0.36839 c 0,-0.17836 -0.107959,-0.25757 -0.239909,-0.17602 -0.13195,0.0815 -0.181153,-0.11979 -0.10934,-0.44741 0.08903,-0.40617 0.0537,-0.48807 -0.111076,-0.25744 -0.180214,0.25225 -0.32309,0.15948 -0.562024,-0.36492 -0.176209,-0.38674 -0.267262,-0.75627 -0.20234,-0.8212 0.06492,-0.0649 0.201458,0.14479 0.303414,0.46603 0.128353,0.4044 0.247169,0.48408 0.386261,0.25902 0.131998,-0.21357 0.303952,-0.0294 0.501435,0.53711 0.165301,0.47419 0.24048,0.92223 0.167063,0.99564 -0.07342,0.0734 -0.133484,-0.0125 -0.133484,-0.19081 z m -0.79375,-2.01286 c 0,-0.0728 0.05953,-0.132289 0.132291,-0.132289 0.07276,0 0.132292,0.0595 0.132292,0.132289 0,0.0728 -0.05953,0.1323 -0.132292,0.1323 -0.07276,0 -0.132291,-0.0595 -0.132291,-0.1323 z m -7.14375,-0.264579 c 0,-0.0728 0.05953,-0.13229 0.132291,-0.13229 0.07276,0 0.132292,0.0595 0.132292,0.13229 0,0.0728 -0.05953,0.13229 -0.132292,0.13229 -0.07276,0 -0.132291,-0.0595 -0.132291,-0.13229 z m 6.35,-0.26458 c 0,-0.0728 0.05953,-0.13229 0.132291,-0.13229 0.07276,0 0.132292,0.0595 0.132292,0.13229 0,0.0728 -0.05953,0.13229 -0.132292,0.13229 -0.07276,0 -0.132291,-0.0595 -0.132291,-0.13229 z m 0.427051,-0.28136 c -0.0873,-0.2275 -0.267306,-0.34654 -0.400008,-0.26452 -0.132703,0.082 -0.55864,-0.39242 -0.946527,-1.0543 -0.387888,-0.66188 -1.381482,-1.87118 -2.207987,-2.68734 -0.826506,-0.81615 -1.205081,-1.3209 -0.841279,-1.12167 0.363802,0.19923 0.759605,0.33399 0.879562,0.29947 0.119957,-0.0345 0.131327,0.0776 0.02526,0.24925 -0.129046,0.2088 -0.07826,0.24121 0.153506,0.098 0.243764,-0.15066 0.282946,-0.11147 0.132292,0.13229 -0.150654,0.24376 -0.111472,0.28294 0.132291,0.13229 0.243764,-0.15065 0.282946,-0.11147 0.132292,0.13229 -0.150654,0.24377 -0.111472,0.28295 0.132292,0.13229 0.243763,-0.15065 0.282946,-0.11147 0.132291,0.1323 -0.150654,0.24376 -0.111471,0.28294 0.132292,0.13229 0.196911,-0.1217 0.281751,-0.10954 0.196634,0.0282 -0.08234,0.13323 0.0042,0.45278 0.192412,0.71012 0.27522,0.37638 0.369998,0.39523 0.484675,0.0964 0.08189,-0.2134 -0.298879,-0.80254 -0.89475,-1.38439 -0.570517,-0.5571 -1.039127,-0.89944 -1.041356,-0.76077 -0.0022,0.13867 -0.115006,0.0767 -0.250617,-0.13776 -0.162311,-0.25666 -0.138324,-0.46601 0.0702,-0.61264 0.187908,-0.13214 0.0746,-0.15464 -0.27855,-0.0553 -0.35013,0.0985 -0.595313,0.0511 -0.595313,-0.11496 0,-0.33214 0.965062,-0.34215 1.719792,-0.0178 l 0.529167,0.22739 -0.518109,0.0186 c -0.432567,0.0155 -0.340128,0.20425 0.559886,1.14307 1.479745,1.54356 2.462223,3.09044 2.27414,3.58058 -0.09853,0.25677 -0.04855,0.34188 0.134379,0.22882 0.160195,-0.099 0.377419,-0.0406 0.482719,0.12977 0.125373,0.20286 0.07624,0.23857 -0.142356,0.10347 -0.245535,-0.15175 -0.286615,-0.0576 -0.155342,0.356 0.204895,0.64557 0.01514,0.77156 -0.223891,0.14865 z m -0.61261,-1.08496 c -0.119712,-0.31197 -0.07104,-0.37977 0.166993,-0.23266 0.391223,0.24179 0.07332,-0.42616 -0.624155,-1.31144 l -0.416911,-0.52917 0.177904,0.50643 c 0.13649,0.38853 0.09045,0.45565 -0.197788,0.28831 -0.222783,-0.12934 -0.285953,-0.12009 -0.155206,0.0227 0.121267,0.13247 0.34947,0.24086 0.507118,0.24086 0.157647,0 0.341765,0.1654 0.409151,0.36756 0.07929,0.23788 0.0078,0.29662 -0.202786,0.1665 -0.252863,-0.15627 -0.258434,-0.0761 -0.02502,0.36005 0.356446,0.66602 0.601397,0.74807 0.360696,0.12082 z m 1.243892,1.10173 c 0,-0.0728 0.05953,-0.13229 0.132292,-0.13229 0.07276,0 0.132291,0.0595 0.132291,0.13229 0,0.0728 -0.05953,0.1323 -0.132291,0.1323 -0.07276,0 -0.132292,-0.0595 -0.132292,-0.1323 z m -8.202083,-0.26458 c 0,-0.0728 0.05953,-0.13229 0.132291,-0.13229 0.07276,0 0.132292,0.0595 0.132292,0.13229 0,0.0728 -0.05953,0.13229 -0.132292,0.13229 -0.07276,0 -0.132291,-0.0595 -0.132291,-0.13229 z m 1.322916,-1.71979 c 0,-0.19403 0.07937,-0.2734 0.176389,-0.17639 0.09701,0.097 0.09701,0.25576 0,0.35278 -0.09701,0.097 -0.176389,0.0176 -0.176389,-0.17639 z m 4.075777,-1.3638 c -0.116967,-0.18925 -0.07258,-0.23364 0.116676,-0.11667 0.305,0.1885 0.409487,0.42214 0.188787,0.42214 -0.06417,0 -0.201631,-0.13746 -0.305463,-0.30547 z m -4.604943,-0.0914 c 0,-0.0728 0.05953,-0.13229 0.132291,-0.13229 0.07276,0 0.132292,0.0595 0.132292,0.13229 0,0.0728 -0.05953,0.13229 -0.132292,0.13229 -0.07276,0 -0.132291,-0.0595 -0.132291,-0.13229 z m 20.108334,14.552079 c 0,-0.0728 -0.0595,-0.13229 -0.13229,-0.13229 -0.0728,0 -0.13229,0.0595 -0.13229,0.13229 0,0.0728 0.0595,0.1323 0.13229,0.1323 0.0728,0 0.13229,-0.0595 0.13229,-0.1323 z m 13.03073,-0.43691 1.78594,-0.27236 v -5.51842 -5.518419 l -1.3466,-0.67636 c -0.74063,-0.37199 -1.48478,-0.5973 -1.65365,-0.50067 -0.16887,0.0966 -0.21828,0.0777 -0.10978,-0.0419 0.29299,-0.32324 -1.15577,-0.95371 -6.92553,-3.01387 -3.475,-1.24079 -3.71106,-1.23185 -1.95497,0.0741 1.95352,1.45275 2.01223,1.51505 1.71125,1.81604 -0.18234,0.18234 -0.74367,-0.13644 -1.74176,-0.98913 -0.80999,-0.692 -1.47271,-1.12466 -1.47271,-0.96146 0,0.1632 0.11906,0.29673 0.26458,0.29673 0.14552,0 0.26458,0.11532 0.26458,0.25628 0,0.14095 -0.19926,0.17981 -0.44281,0.0864 -0.35316,-0.13552 -0.4021,-0.0669 -0.24177,0.33904 0.70375,1.78162 0.98881,4.36538 0.82971,7.520409 -0.22326,4.42758 -0.25171,4.72786 -0.43717,4.61324 -0.14265,-0.0882 -0.76629,1.0262 -0.76629,1.36926 0,0.0752 0.47492,-0.13014 1.05537,-0.45638 0.58046,-0.32623 1.12559,-0.52294 1.2114,-0.43713 0.0858,0.0858 -0.41887,0.48537 -1.12152,0.88789 -0.70265,0.40253 -1.32715,0.77022 -1.38778,0.81708 -0.95001,0.73425 8.20576,0.9615 12.47951,0.30975 z m 1.43316,0.39282 c -0.097,-0.097 -0.25577,-0.097 -0.35278,0 -0.097,0.097 -0.0176,0.17639 0.17639,0.17639 0.19403,0 0.2734,-0.0794 0.17639,-0.17639 z m -13.96906,-2.27101 c 1.32281,-2.74427 1.30202,-12.369269 -0.0267,-12.369269 -0.12912,0 -0.1637,-0.11498 -0.0768,-0.25551 0.32417,-0.52453 -0.89079,-2.38685 -1.52302,-2.33453 l -0.59518,0.0493 0.5854,1.15631 c 0.32197,0.63597 0.66452,1.6839 0.76122,2.32872 0.0967,0.64483 0.25159,1.17269 0.34421,1.17303 0.82234,0.003 0.13149,8.600049 -0.877,10.913449 -0.48099,1.10336 0.86118,0.47279 1.40793,-0.66146 z m 0.5635,-13.559899 c 0,-0.0728 -0.0595,-0.13229 -0.13229,-0.13229 -0.0728,0 -0.13229,0.0595 -0.13229,0.13229 0,0.0728 0.0595,0.1323 0.13229,0.1323 0.0728,0 0.13229,-0.0595 0.13229,-0.1323 z m -0.26458,-1.63785 c 0,-0.0693 -0.14645,-0.0772 -0.32545,-0.0175 -0.179,0.0597 -0.53642,-0.13877 -0.79427,-0.44097 l -0.46882,-0.54946 0.17966,0.52917 c 0.26086,0.76833 1.40888,1.15849 1.40888,0.47881 z m 0.52917,0.31494 c 0,-0.0728 -0.0595,-0.13229 -0.1323,-0.13229 -0.0728,0 -0.13229,0.0595 -0.13229,0.13229 0,0.0728 0.0595,0.13229 0.13229,0.13229 0.0728,0 0.1323,-0.0595 0.1323,-0.13229 z m -7.587101,-1.01047 c -0.1276,-0.21275 -0.0561,-0.20618 0.22402,0.0206 0.35501,0.28739 0.3941,0.24247 0.28512,-0.32764 -0.0695,-0.36338 -0.23175,-0.59552 -0.36063,-0.51587 -0.12888,0.0797 -0.23433,0.0218 -0.23433,-0.12858 0,-0.15037 -0.34483,-0.45172 -0.766289,-0.66967 l -0.766289,-0.39626 0.640282,1.32724 c 0.352155,0.72999 0.758456,1.25421 0.902896,1.16494 0.14444,-0.0893 0.17829,-0.30291 0.0752,-0.47475 z m -10.33111,-2.04647 c 2.895253,-1.369241 6.966162,-1.658691 8.944376,-0.63597 l 0.904044,0.46739 -0.37761,-0.45521 c -0.476423,-0.574331 -1.638873,-1.182741 -2.29515,-1.201251 -0.276235,-0.008 -0.985167,-0.0837 -1.575404,-0.16868 -2.418068,-0.34815 -6.345404,0.925931 -8.245563,2.674981 -0.695536,0.64022 -1.108756,1.16877 -0.918267,1.17455 0.206299,0.006 0.265573,0.14423 0.146591,0.34123 -0.109864,0.1819 0.261757,-0.0714 0.825825,-0.56295 0.564068,-0.49153 1.730089,-1.22687 2.591158,-1.63409 z m -3.24846,1.73402 c 0,-0.0728 0.05953,-0.13229 0.132292,-0.13229 0.07276,0 0.132291,0.0595 0.132291,0.13229 0,0.0728 -0.05953,0.13229 -0.132291,0.13229 -0.07276,0 -0.132292,-0.0595 -0.132292,-0.13229 z m 23.988891,0.22049 c -0.097,-0.097 -0.25577,-0.097 -0.35278,0 -0.097,0.097 -0.0176,0.17639 0.17639,0.17639 0.19403,0 0.2734,-0.0794 0.17639,-0.17639 z m -3.35139,-0.22049 c 0,-0.0728 -0.0595,-0.13229 -0.13229,-0.13229 -0.0728,0 -0.13229,0.0595 -0.13229,0.13229 0,0.0728 0.0595,0.13229 0.13229,0.13229 0.0728,0 0.13229,-0.0595 0.13229,-0.13229 z m 10.9191,-0.0413 c -0.17913,-0.0725 -0.53632,-0.0769 -0.79375,-0.01 -0.25743,0.0671 -0.11087,0.12638 0.32569,0.13177 0.43656,0.005 0.64719,-0.0495 0.46806,-0.12197 z m -11.71285,-0.22332 c 0,-0.0728 -0.0595,-0.13229 -0.13229,-0.13229 -0.0728,0 -0.13229,0.0595 -0.13229,0.13229 0,0.0728 0.0595,0.13229 0.13229,0.13229 0.0728,0 0.13229,-0.0595 0.13229,-0.13229 z m 9.71793,-0.0276 c -0.0879,-0.0879 -0.31613,-0.0973 -0.50712,-0.0209 -0.21107,0.0845 -0.14837,0.14716 0.15985,0.15985 0.27891,0.0115 0.43518,-0.051 0.34727,-0.13896 z m -9.01237,-0.28112 c -0.097,-0.097 -0.25577,-0.097 -0.35278,0 -0.097,0.097 -0.0176,0.17639 0.17639,0.17639 0.19402,0 0.2734,-0.0794 0.17639,-0.17639 z m 6.8957,0.0165 c -0.0879,-0.0879 -0.31612,-0.0973 -0.50712,-0.0209 -0.21107,0.0845 -0.14837,0.14716 0.15985,0.15986 0.27892,0.0115 0.43519,-0.0511 0.34727,-0.13897 z m -5.29167,-0.26458 c -0.0879,-0.0879 -0.31612,-0.0973 -0.50712,-0.0209 -0.21106,0.0845 -0.14837,0.14716 0.15986,0.15985 0.27891,0.0115 0.43518,-0.051 0.34726,-0.13896 z m 2.36472,-0.0165 c -0.097,-0.097 -0.25577,-0.097 -0.35278,0 -0.097,0.097 -0.0176,0.17639 0.17639,0.17639 0.19402,0 0.2734,-0.0794 0.17639,-0.17639 z m 0.79375,0 c -0.097,-0.097 -0.25577,-0.097 -0.35278,0 -0.097,0.097 -0.0176,0.17639 0.17639,0.17639 0.19402,0 0.2734,-0.0794 0.17639,-0.17639 z m -4.27744,-0.35277 c 0.41575,-0.17866 0.30234,-0.23051 -0.52916,-0.24194 -0.77632,-0.0107 -0.95258,0.0538 -0.66146,0.24194 0.46292,0.29916 0.49444,0.29916 1.19062,0 z m 2.31511,0.0893 c -0.1819,-0.0734 -0.47956,-0.0734 -0.66146,0 -0.1819,0.0734 -0.0331,0.13345 0.33073,0.13345 0.3638,0 0.51263,-0.06 0.33073,-0.13345 z M 87.468172,87.76554 c 0,-0.14552 -0.126089,-0.26458 -0.280198,-0.26458 -0.154109,0 -0.206613,0.11906 -0.116677,0.26458 0.08994,0.14552 0.216026,0.26458 0.280199,0.26458 0.06417,0 0.116676,-0.11906 0.116676,-0.26458 z m 1.322917,-0.26447 c 0,-0.14553 -0.267891,-0.26276 -0.595312,-0.26054 -0.481393,0.003 -0.519367,0.0531 -0.198438,0.26054 0.512963,0.3315 0.79375,0.3315 0.79375,0 z m 3.704167,0.13229 c 0,-0.0728 -0.05953,-0.13229 -0.132292,-0.13229 -0.07276,0 -0.132292,0.0595 -0.132292,0.13229 0,0.0728 0.05953,0.13229 0.132292,0.13229 0.07276,0 0.132292,-0.0595 0.132292,-0.13229 z m 0.529166,0 c 0,-0.0728 -0.05953,-0.13229 -0.132291,-0.13229 -0.07276,0 -0.132292,0.0595 -0.132292,0.13229 0,0.0728 0.05953,0.13229 0.132292,0.13229 0.07276,0 0.132291,-0.0595 0.132291,-0.13229 z M 91.579771,65.924463 c 2.250459,-0.58502 7.799598,-3.848189 7.793198,-4.582791 -8e-4,-0.09166 -0.74494,-0.174796 -1.65364,-0.184754 -1.77652,-0.01947 -3.56849,-0.746081 -5.176161,-2.098847 l -0.821272,-0.691055 0.120475,0.940983 c 0.12634,0.986788 -0.205374,1.251512 -0.626122,0.499676 -0.260988,-0.466359 -0.333,-0.162164 -0.724724,3.061406 -0.09554,0.786211 -0.338628,1.824184 -0.540197,2.306606 -0.573866,1.373454 -0.646355,1.340123 1.628443,0.748776 z m -1.870558,-2.380471 c 0.4584,-1.759918 0.521078,-7.528344 0.0818,-7.528344 -0.14734,0 -0.201596,-0.253515 -0.120568,-0.563367 0.19001,-0.726598 -0.560917,-2.611633 -1.040376,-2.611633 -0.450938,0 -0.454429,-0.139284 0.05099,2.034103 0.419893,1.805611 0.628906,7.3248 0.290219,7.663487 -0.0991,0.0991 -0.176567,0.904485 -0.172142,1.789737 0.0093,1.861793 0.282164,1.626741 0.910077,-0.783983 z m -15.734791,0.806031 c 0,-0.07276 -0.05953,-0.132291 -0.132291,-0.132291 -0.07276,0 -0.132292,0.05953 -0.132292,0.132291 0,0.07276 0.05953,0.132292 0.132292,0.132292 0.07276,0 0.132291,-0.05953 0.132291,-0.132292 z m 3.732733,-3.333583 c 2.000254,-1.040624 5.779254,-1.37623 7.482623,-0.664518 0.781269,0.326436 0.949584,0.341053 0.718309,0.06238 -1.643759,-1.980608 -8.022029,-0.915885 -10.728884,1.79097 -1.614707,1.614707 -1.546274,2.139711 0.08056,0.618003 0.706935,-0.661255 1.808263,-1.474332 2.447396,-1.806839 z m 9.496434,0.438782 c 0,-0.06417 -0.137459,-0.201631 -0.305464,-0.305464 -0.189256,-0.116967 -0.233643,-0.07258 -0.116676,0.116677 0.188499,0.304999 0.42214,0.409486 0.42214,0.188787 z m 9.29732,-1.245246 C 94.851052,59.735205 92.811744,58.1311 92.009548,56.677107 91.781864,56.264425 91.715826,56.241665 91.709551,56.57371 c -0.02321,1.22834 3.448759,3.928145 5.019038,3.902805 0.55933,-0.009 0.52417,-0.05018 -0.22768,-0.266539 z m 3.1381,0.171297 c 0,-0.07276 -0.0595,-0.132291 -0.13229,-0.132291 -0.0728,0 -0.1323,0.05953 -0.1323,0.132291 0,0.07276 0.0595,0.132292 0.1323,0.132292 0.0728,0 0.13229,-0.05953 0.13229,-0.132292 z m 1.455211,-0.661458 c 0.0899,-0.145521 0.10399,-0.264583 0.0312,-0.264583 -0.0728,0 -0.20587,0.119062 -0.29581,0.264583 -0.0899,0.145521 -0.10399,0.264583 -0.0312,0.264583 0.0728,0 0.20588,-0.119062 0.29582,-0.264583 z M 90.907756,57.73544 c 0,-0.07276 -0.05953,-0.132292 -0.132292,-0.132292 -0.07276,0 -0.132292,0.05953 -0.132292,0.132292 0,0.07276 0.05953,0.132292 0.132292,0.132292 0.07276,0 0.132292,-0.05953 0.132292,-0.132292 z m 11.816894,-1.785938 c -0.0734,-0.181901 -0.13345,-0.03307 -0.13345,0.33073 0,0.363802 0.0601,0.51263 0.13345,0.330729 0.0734,-0.181901 0.0734,-0.479557 0,-0.661459 z m -8.377311,0.198438 c 0,-0.07276 -0.05953,-0.132292 -0.132292,-0.132292 -0.07276,0 -0.132291,0.05953 -0.132291,0.132292 0,0.07276 0.05953,0.132292 0.132291,0.132292 0.07276,0 0.132292,-0.05953 0.132292,-0.132292 z m -2.734028,-0.573264 c -0.09701,-0.09701 -0.176389,-0.01764 -0.176389,0.176389 0,0.194028 0.07938,0.273403 0.176389,0.176389 0.09701,-0.09701 0.09701,-0.255764 0,-0.352778 z m -0.970139,0.0441 c 0,-0.07276 -0.05953,-0.132291 -0.132291,-0.132291 -0.07276,0 -0.132292,0.05953 -0.132292,0.132291 0,0.07276 0.05953,0.132292 0.132292,0.132292 0.07276,0 0.132291,-0.05953 0.132291,-0.132292 z m 3.439584,0 c 0,-0.07276 -0.05953,-0.132291 -0.132292,-0.132291 -0.07276,0 -0.132292,0.05953 -0.132292,0.132291 0,0.07276 0.05953,0.132292 0.132292,0.132292 0.07276,0 0.132292,-0.05953 0.132292,-0.132292 z m 1.048741,-13.879098 c 1.058342,-0.669391 -2.467625,-4.24486 -4.186087,-4.24486 -0.399064,0 -0.8755,-0.148828 -1.058746,-0.330729 -0.26714,-0.265179 -0.298238,-0.238958 -0.156901,0.132291 0.112699,0.296028 0.05042,0.463021 -0.172679,0.463021 -0.191924,0 0.18229,0.271743 0.831588,0.603874 1.359082,0.6952 1.59566,0.676354 0.917427,-0.07309 -1.183517,-1.307771 1.086454,-0.07426 2.637602,1.433283 1.394492,1.355291 1.455417,1.540349 0.469784,1.42694 -0.545793,-0.0628 -0.750798,-0.249003 -0.820424,-0.745179 -0.0901,-0.642086 -0.450367,-1.04599 -0.940375,-1.054281 -0.131694,-0.0022 -0.02351,0.234557 0.240417,0.52619 0.389027,0.429869 0.425182,0.650252 0.190999,1.164227 -0.158875,0.348693 -0.217453,0.705396 -0.130174,0.792675 0.24488,0.244881 1.74391,0.179919 2.177569,-0.09437 z m 0.596422,-1.382609 c -0.16566,-0.165665 -0.20254,0.0083 -0.1041,0.491125 0.11291,0.553762 0.17944,0.620294 0.25654,0.256541 0.0573,-0.270119 -0.0113,-0.606569 -0.15244,-0.747666 z m -4.038375,0.643478 c -0.0066,-0.109141 -0.720955,-0.641137 -1.5875,-1.182214 -1.51991,-0.949042 -2.058379,-1.853888 -1.261346,-2.119566 0.201721,-0.06724 0.104838,-0.314086 -0.270647,-0.68957 -0.469464,-0.469465 -0.688036,-0.529611 -1.107942,-0.304884 -0.702607,0.376024 -0.663389,0.998269 0.06951,1.102832 0.343889,0.04906 0.633456,0.306641 0.68993,0.613714 0.197356,1.0731 3.526459,3.549469 3.467999,2.579688 z m 0.925557,-0.661458 c -0.116297,-0.300187 -0.735493,-0.737879 -2.441223,-1.72563 -0.330873,-0.191601 -0.725379,-0.271858 -0.876681,-0.178349 -0.329329,0.203537 1.410273,1.515353 2.5366,1.912824 0.436563,0.154059 0.819779,0.289507 0.851592,0.300996 0.03181,0.01149 1.84e-4,-0.12794 -0.07029,-0.309841 z m -0.913595,-0.33073 c 0,-0.07276 0.05953,-0.132291 0.132291,-0.132291 0.07276,0 0.132292,0.05953 0.132292,0.132291 0,0.07276 -0.05953,0.132292 -0.132292,0.132292 -0.07276,0 -0.132291,-0.05953 -0.132291,-0.132292 z m 3.704166,-0.223576 c 0,-0.05021 -0.26789,-0.318097 -0.595312,-0.595312 l -0.595313,-0.504028 0.504028,0.595312 c 0.473662,0.559447 0.686597,0.715762 0.686597,0.504028 z m 12.964588,-0.30559 c 0,-0.07276 -0.0595,-0.132292 -0.1323,-0.132292 -0.0728,0 -0.13229,0.05953 -0.13229,0.132292 0,0.07276 0.0595,0.132291 0.13229,0.132291 0.0728,0 0.1323,-0.05953 0.1323,-0.132291 z m 2.91041,0 c 0,-0.07276 -0.0595,-0.132292 -0.13229,-0.132292 -0.0728,0 -0.13229,0.05953 -0.13229,0.132292 0,0.07276 0.0595,0.132291 0.13229,0.132291 0.0728,0 0.13229,-0.05953 0.13229,-0.132291 z m -3.70416,-0.264584 c 0,-0.07276 -0.0595,-0.132291 -0.1323,-0.132291 -0.0728,0 -0.13229,0.05953 -0.13229,0.132291 0,0.07276 0.0595,0.132292 0.13229,0.132292 0.0728,0 0.1323,-0.05953 0.1323,-0.132292 z M 92.230672,38.950023 c 0,-0.07276 -0.05953,-0.132292 -0.132291,-0.132292 -0.07276,0 -0.132292,0.05953 -0.132292,0.132292 0,0.07276 0.05953,0.132292 0.132292,0.132292 0.07276,0 0.132291,-0.05953 0.132291,-0.132292 z m 14.816668,0 c 0,-0.07276 -0.0595,-0.132292 -0.13229,-0.132292 -0.0728,0 -0.13229,0.05953 -0.13229,0.132292 0,0.07276 0.0595,0.132292 0.13229,0.132292 0.0728,0 0.13229,-0.05953 0.13229,-0.132292 z m -0.52917,-0.264583 c 0,-0.07276 -0.0595,-0.132292 -0.13229,-0.132292 -0.0728,0 -0.13229,0.05953 -0.13229,0.132292 0,0.07276 0.0595,0.132291 0.13229,0.132291 0.0728,0 0.13229,-0.05953 0.13229,-0.132291 z M 93.3772,37.935787 c -0.256122,-0.339549 -0.625702,-0.617361 -0.821289,-0.617361 -0.195587,0 -0.02136,0.27353 0.387179,0.607846 0.942362,0.77116 1.009734,0.772637 0.43411,0.0095 z m 12.08264,-0.0441 c 0,-0.07276 -0.0595,-0.132292 -0.13229,-0.132292 -0.0728,0 -0.13229,0.05953 -0.13229,0.132292 0,0.07276 0.0595,0.132291 0.13229,0.132291 0.0728,0 0.13229,-0.05953 0.13229,-0.132291 z M 91.877895,37.053842 c -0.09701,-0.09701 -0.255764,-0.09701 -0.352778,0 -0.09701,0.09701 -0.01764,0.176389 0.176389,0.176389 0.194028,0 0.273403,-0.07937 0.176389,-0.176389 z m -1.763889,-0.617361 c -0.218282,-0.141064 -0.515938,-0.25648 -0.661459,-0.25648 -0.14552,0 -0.08599,0.115416 0.132292,0.25648 0.218281,0.141065 0.515938,0.256481 0.661458,0.256481 0.145521,0 0.08599,-0.115416 -0.132291,-0.256481 z M 87.468172,36.30419 c 0,-0.07276 -0.05953,-0.132292 -0.132291,-0.132292 -0.07276,0 -0.132292,0.05953 -0.132292,0.132292 0,0.07276 0.05953,0.132291 0.132292,0.132291 0.07276,0 0.132291,-0.05953 0.132291,-0.132291 z m 9.510847,-0.370427 c 0.28391,-0.530491 -0.0232,-0.78967 -1.17647,-0.992979 -0.424338,-0.0748 -0.450801,-0.04279 -0.13358,0.161593 0.34024,0.219216 0.32173,0.314612 -0.13229,0.68182 -0.290337,0.234818 -0.403134,0.366438 -0.250666,0.292488 0.152469,-0.07395 0.450126,-0.02507 0.661456,0.108619 0.55772,0.352817 0.73068,0.310641 1.03155,-0.251541 z m -7.923347,0.105843 c 0,-0.07276 -0.05953,-0.132291 -0.132291,-0.132291 -0.07276,0 -0.132292,0.05953 -0.132292,0.132291 0,0.07276 0.05953,0.132292 0.132292,0.132292 0.07276,0 0.132291,-0.05953 0.132291,-0.132292 z m 15.345838,0 c 0,-0.07276 -0.0595,-0.132291 -0.1323,-0.132291 -0.0728,0 -0.13229,0.05953 -0.13229,0.132291 0,0.07276 0.0595,0.132292 0.13229,0.132292 0.0728,0 0.1323,-0.05953 0.1323,-0.132292 z M 87.203589,35.775023 c 0,-0.07276 -0.05953,-0.132292 -0.132292,-0.132292 -0.07276,0 -0.132291,0.05953 -0.132291,0.132292 0,0.07276 0.05953,0.132292 0.132291,0.132292 0.07276,0 0.132292,-0.05953 0.132292,-0.132292 z m 3.175,0 c 0,-0.07276 -0.05953,-0.132292 -0.132292,-0.132292 -0.07276,0 -0.132291,0.05953 -0.132291,0.132292 0,0.07276 0.05953,0.132292 0.132291,0.132292 0.07276,0 0.132292,-0.05953 0.132292,-0.132292 z m 13.944151,-1.190625 c 0.66303,-1.354793 1.12532,-4.322518 0.89451,-5.742451 l -0.15538,-0.955941 -0.86951,1.398753 c -1.03495,1.664888 -1.41544,1.648185 -0.46169,-0.02027 0.8475,-1.482589 0.83946,-1.599661 -0.16068,-2.339097 -0.45734,-0.338122 -0.73929,-0.44981 -0.62658,-0.248195 0.11272,0.201615 -0.17609,-0.05015 -0.64181,-0.559469 -0.46571,-0.509323 -0.77204,-0.777213 -0.68072,-0.595312 0.0913,0.181901 0.047,0.330729 -0.0986,0.330729 -0.26493,0 -0.68102,-0.506242 -0.68864,-0.837847 -0.002,-0.09701 -0.11243,-0.275608 -0.24491,-0.396875 -0.13993,-0.128102 -0.1611,-0.08191 -0.0505,0.110243 0.28369,0.492963 -0.24931,0.399715 -0.668401,-0.116935 -0.30927,-0.381266 -0.30801,-0.414446 0.008,-0.223703 0.246911,0.148805 0.310661,0.125332 0.189971,-0.06995 -0.0999,-0.16165 -0.331931,-0.236241 -0.515601,-0.165758 -0.18368,0.07048 -1.02846,-0.358356 -1.87731,-0.952973 -1.80411,-1.263787 -2.0239,-1.229367 -2.928055,0.458551 -1.117363,2.085951 -2.122445,3.768704 -2.547492,4.265123 -0.858171,1.002271 -0.767223,1.244296 0.654433,1.741535 2.673184,0.934975 6.030304,3.37122 6.918704,5.020864 0.425111,0.789396 0.665941,0.948023 1.573061,1.03613 2.16443,0.210226 2.35245,0.138399 2.97671,-1.137158 z m -2.46004,-8.507547 c -0.11697,-0.189257 -0.0726,-0.233644 0.11668,-0.116677 0.305,0.1885 0.40948,0.42214 0.18878,0.42214 -0.0642,0 -0.20163,-0.137458 -0.30546,-0.305463 z m -12.101472,9.389491 c -0.09701,-0.09701 -0.255764,-0.09701 -0.352778,0 -0.09701,0.09701 -0.01764,0.176389 0.176389,0.176389 0.194028,0 0.273403,-0.07937 0.176389,-0.176389 z m 9.713701,-0.15434 c -0.58724,-0.994426 -1.51121,-2.027493 -1.70582,-1.90722 -0.12294,0.07598 -0.42037,-0.162283 -0.66096,-0.529473 -0.24059,-0.36719 -0.53616,-0.606604 -0.65682,-0.532033 -0.12066,0.07457 -0.316,-0.02473 -0.43408,-0.220662 -0.22156,-0.367623 -1.121212,-0.829364 -1.471472,-0.755221 -0.109141,0.0231 -0.198438,-0.0685 -0.198438,-0.203568 0,-0.256032 -2.901988,-1.43855 -3.083895,-1.256643 -0.175688,0.175688 0.514158,0.602854 1.748898,1.08295 1.590958,0.618603 4.632627,2.687529 5.513517,3.750265 0.70026,0.844811 1.3368,1.22819 0.94907,0.571605 z m -1.68801,-1.653646 c 0,-0.07276 0.0595,-0.132291 0.1323,-0.132291 0.0728,0 0.13229,0.05953 0.13229,0.132291 0,0.07276 -0.0595,0.132292 -0.13229,0.132292 -0.0728,0 -0.1323,-0.05953 -0.1323,-0.132292 z m -1.32291,-1.058333 c 0,-0.07276 0.0595,-0.132292 0.13229,-0.132292 0.0728,0 0.13229,0.05953 0.13229,0.132292 0,0.07276 -0.0595,0.132292 -0.13229,0.132292 -0.0728,0 -0.13229,-0.05953 -0.13229,-0.132292 z m 8.980611,2.014211 c 0.70637,-1.384596 1.1324,-4.239828 0.91688,-6.144792 -0.27231,-2.40689 -0.50208,-1.850339 -0.53107,1.286335 -0.0243,2.630269 -0.17198,3.411905 -1.02472,5.423933 -0.37859,0.893296 0.11969,0.452282 0.63891,-0.565476 z m -16.477142,0.587525 c -0.09701,-0.09701 -0.255764,-0.09701 -0.352778,0 -0.09701,0.09701 -0.01764,0.176389 0.176389,0.176389 0.194028,0 0.273403,-0.07937 0.176389,-0.176389 z m 6.702781,-0.749653 c 0,-0.07276 -0.0595,-0.132291 -0.13229,-0.132291 -0.07277,0 -0.132297,0.05953 -0.132297,0.132291 0,0.07276 0.05953,0.132292 0.132297,0.132292 0.0728,0 0.13229,-0.05953 0.13229,-0.132292 z m 0.26458,-0.529166 c 0,-0.07276 -0.0595,-0.132292 -0.13229,-0.132292 -0.0728,0 -0.13229,0.05953 -0.13229,0.132292 0,0.07276 0.0595,0.132291 0.13229,0.132291 0.0728,0 0.13229,-0.05953 0.13229,-0.132291 z m -0.26458,-0.79375 c 0,-0.07276 -0.0595,-0.132292 -0.13229,-0.132292 -0.07277,0 -0.132297,0.05953 -0.132297,0.132292 0,0.07276 0.05953,0.132291 0.132297,0.132291 0.0728,0 0.13229,-0.05953 0.13229,-0.132291 z m -0.52917,-0.264584 c 0,-0.07276 -0.05953,-0.132291 -0.132292,-0.132291 -0.07276,0 -0.132291,0.05953 -0.132291,0.132291 0,0.07276 0.05953,0.132292 0.132291,0.132292 0.07276,0 0.132292,-0.05953 0.132292,-0.132292 z m 19.225231,-3.108854 c -0.0734,-0.181901 -0.13345,-0.03307 -0.13345,0.330729 0,0.363802 0.06,0.51263 0.13345,0.330729 0.0734,-0.181901 0.0734,-0.479557 0,-0.661458 z m -0.25907,-1.30638 c -0.0845,-0.211067 -0.14716,-0.148372 -0.15986,0.159852 -0.0115,0.278915 0.0511,0.435185 0.13897,0.347266 0.0879,-0.08792 0.0973,-0.316122 0.0209,-0.507118 z m -0.26459,-1.322917 c -0.0845,-0.211067 -0.14715,-0.148372 -0.15985,0.159853 -0.0115,0.278914 0.051,0.435184 0.13897,0.347265 0.0879,-0.08792 0.0973,-0.316122 0.0209,-0.507118 z m -0.26893,-0.920529 c -0.097,-0.09701 -0.17639,-0.01764 -0.17639,0.176388 0,0.194028 0.0794,0.273403 0.17639,0.176389 0.097,-0.09701 0.097,-0.255764 0,-0.352777 z M 99.109839,23.604189 c 0,-0.07276 -0.0595,-0.132291 -0.13229,-0.132291 -0.0728,0 -0.13229,0.05953 -0.13229,0.132291 0,0.07276 0.0595,0.132292 0.13229,0.132292 0.0728,0 0.13229,-0.05953 0.13229,-0.132292 z m -0.79375,-0.529166 c 0,-0.07276 -0.0595,-0.132292 -0.13229,-0.132292 -0.0728,0 -0.13229,0.05953 -0.13229,0.132292 0,0.07276 0.0595,0.132291 0.13229,0.132291 0.0728,0 0.13229,-0.05953 0.13229,-0.132291 z m -0.79375,-0.513552 c 0,-0.06417 -0.13746,-0.201631 -0.30546,-0.305464 -0.18926,-0.116967 -0.23365,-0.07258 -0.11668,0.116677 0.1885,0.304999 0.42214,0.409486 0.42214,0.188787 z m 1.05833,-0.495024 c 0,-0.04539 -0.38695,-0.351737 -0.85989,-0.680761 l -0.8599,-0.598227 0.74236,0.680761 c 0.68477,0.627955 0.97743,0.807073 0.97743,0.598227 z m -2.11666,-0.314341 c 0,-0.07276 -0.0595,-0.132292 -0.13229,-0.132292 -0.0728,0 -0.1323,0.05953 -0.1323,0.132292 0,0.07276 0.0595,0.132292 0.1323,0.132292 0.0728,0 0.13229,-0.05953 0.13229,-0.132292 z m 7.581461,101.023474 c -0.054,-0.054 -0.53328,-0.11458 -1.06501,-0.13457 -0.53172,-0.02 -1.11412,-0.21427 -1.29422,-0.43173 -0.28306,-0.34179 -0.20192,-0.37372 0.5986,-0.23558 0.50932,0.0879 1.64042,0.24015 2.51354,0.33835 2.2062,0.24812 2.78075,0.6471 0.86328,0.59947 -0.83488,-0.0207 -1.56217,-0.0819 -1.61619,-0.13594 z m 3.53104,0.0474 c 0,-0.0728 0.0595,-0.13229 0.13229,-0.13229 0.0728,0 0.13229,0.0595 0.13229,0.13229 0,0.0728 -0.0595,0.13229 -0.13229,0.13229 -0.0728,0 -0.13229,-0.0595 -0.13229,-0.13229 z m -9.225591,-0.8275 c -0.0468,-1.11275 0.60443,-1.67533 1.02649,-0.88671 0.38876,0.72641 0.0601,1.09291 -0.34891,0.38909 l -0.30624,-0.52696 -0.16826,0.92604 -0.16825,0.92604 z m 6.579751,-0.0135 c -2.62038,-0.1916 -2.89258,-0.29994 -2.83284,-1.12748 0.0301,-0.41697 0.12806,-0.71303 0.21771,-0.65791 0.32428,0.1994 2.78189,-5.51198 2.65541,-6.17104 -0.0349,-0.18191 0.13422,-0.33073 0.37584,-0.33073 0.34444,0 0.40229,0.15715 0.26786,0.7276 -0.0943,0.40018 -0.19748,0.9062 -0.22928,1.12448 -0.0318,0.21828 -0.14563,0.51594 -0.25294,0.66146 -0.9512,1.28979 -2.47983,4.89982 -2.09216,4.94084 1.81765,0.19234 2.15499,0.10891 2.15499,-0.53295 0,-0.53554 0.0628,-0.5841 0.39687,-0.30685 0.38939,0.32316 0.62531,-2.62485 0.43686,-5.4589 -0.064,-0.96189 0.35624,-1.22306 1.45898,-0.90681 0.6238,0.17889 0.67208,0.24759 0.28697,0.40828 -0.25466,0.10627 -0.64161,0.12468 -0.85989,0.0409 -0.33544,-0.12873 -0.39557,0.22525 -0.38846,2.28679 0.007,2.10074 0.0578,2.37401 0.3644,1.96991 l 0.35599,-0.46918 0.16115,0.60147 c 0.23026,0.85942 0.17177,1.22509 -0.0962,0.60148 -0.18725,-0.43577 -0.23067,-0.44964 -0.24598,-0.0786 -0.0233,0.56419 0.53273,1.81588 0.74769,1.68319 0.0879,-0.0542 0.17692,0.18763 0.19791,0.53746 0.0413,0.68773 0.0543,0.6858 -3.08087,0.45657 z m 1.85209,-0.58948 c 0,-0.13189 -0.23813,-0.17754 -0.52917,-0.10143 -0.29104,0.0761 -0.52917,0.18403 -0.52917,0.23981 0,0.0558 0.23813,0.10144 0.52917,0.10144 0.29104,0 0.52917,-0.10792 0.52917,-0.23982 z m -0.0894,-1.943 c -0.0734,-0.1819 -0.13345,-0.0331 -0.13345,0.33073 0,0.3638 0.0601,0.51263 0.13345,0.33073 0.0734,-0.1819 0.0734,-0.47956 0,-0.66146 z m -6.31734,1.85209 c 0.14998,-0.1819 0.34385,-0.97422 0.43084,-1.76071 0.087,-0.78649 0.27547,-1.57135 0.41887,-1.74414 0.1434,-0.17278 0.18239,-0.3925 0.0866,-0.48825 -0.0958,-0.0958 -0.0492,-0.17409 0.10339,-0.17409 0.15262,0 0.28398,-0.46997 0.29191,-1.04438 0.0161,-1.16775 0.4713,-2.22726 0.85499,-1.99012 0.36988,0.22859 0.30607,1.18175 -0.0794,1.18647 -0.2395,0.003 -0.23015,0.0678 0.0339,0.235 0.23021,0.14581 0.28145,0.36378 0.139,0.59126 -0.1241,0.19817 -0.26608,0.655 -0.31551,1.01518 -0.0494,0.36017 -0.23103,0.82495 -0.40356,1.03283 -0.17253,0.20788 -0.27644,0.5978 -0.23093,0.86649 0.0455,0.26869 -0.0424,0.48852 -0.19533,0.48852 -0.15295,0 -0.26063,0.20836 -0.23929,0.46302 0.10271,1.22565 -0.0543,1.65365 -0.60661,1.65365 -0.41829,0 -0.49199,-0.0844 -0.28888,-0.33073 z m 7.20045,-0.99219 c 0,-0.19403 0.0794,-0.2734 0.17639,-0.17639 0.097,0.097 0.097,0.25576 0,0.35278 -0.097,0.097 -0.17639,0.0176 -0.17639,-0.17639 z m 7.9375,-6.21771 c 0,-0.0728 0.0595,-0.13229 0.13229,-0.13229 0.0728,0 0.13229,0.0595 0.13229,0.13229 0,0.0728 -0.0595,0.13229 -0.13229,0.13229 -0.0728,0 -0.13229,-0.0595 -0.13229,-0.13229 z m -11.28889,-0.30868 c 0.097,-0.097 0.25576,-0.097 0.35278,0 0.097,0.097 0.0176,0.17639 -0.17639,0.17639 -0.19403,0 -0.27341,-0.0794 -0.17639,-0.17639 z m 12.9931,-16.087069 c -0.28247,-0.21365 -0.37934,-0.39225 -0.21526,-0.39688 0.16409,-0.005 0.44656,0.17018 0.62771,0.38846 0.41825,0.50397 0.24733,0.50745 -0.41245,0.008 z m -0.11671,-2.38967 c 0,-0.0728 0.0595,-0.13229 0.13229,-0.13229 0.0728,0 0.13229,0.0595 0.13229,0.13229 0,0.0728 -0.0595,0.1323 -0.13229,0.1323 -0.0728,0 -0.13229,-0.0595 -0.13229,-0.1323 z M 83.234799,87.63336 c 0,-0.0728 0.05953,-0.13229 0.132292,-0.13229 0.07276,0 0.132291,0.0595 0.132291,0.13229 0,0.0728 -0.05953,0.13229 -0.132291,0.13229 -0.07276,0 -0.132292,-0.0595 -0.132292,-0.13229 z m 1.852083,-19.182295 c 0,-0.194028 0.07937,-0.273403 0.176389,-0.176389 0.09701,0.09701 0.09701,0.255764 0,0.352778 -0.09701,0.09701 -0.176389,0.01764 -0.176389,-0.176389 z m -7.625429,-0.771257 c -0.147874,-0.424192 -0.211115,-0.829004 -0.140535,-0.899583 0.07058,-0.07058 -0.08341,-0.110467 -0.342197,-0.08864 -1.654867,0.139584 0.720667,-2.95601 2.685076,-3.498962 0.685077,-0.189352 1.088518,-0.200078 1.145655,-0.03046 0.04851,0.144 0.280699,0.261818 0.515982,0.261818 0.235283,0 -0.07282,0.324602 -0.684683,0.721339 -0.611858,0.396736 -1.170386,0.903817 -1.241173,1.126846 -0.07079,0.223028 -0.397679,0.527861 -0.726428,0.677407 -0.616222,0.280314 -0.646186,0.409859 -0.303208,1.310866 0.181623,0.477126 0.155895,0.492097 -0.261617,0.152233 l -0.463051,-0.376934 0.177612,0.707663 c 0.238347,0.94965 -0.02432,0.903433 -0.361433,-0.06359 z m 1.275429,-2.810816 c 0,-0.177173 0.267891,-0.518689 0.595313,-0.758923 0.471627,-0.346039 0.48537,-0.384961 0.06615,-0.187332 -0.291042,0.137201 -0.886354,0.626731 -1.322917,1.087844 l -0.79375,0.838387 0.727604,-0.328921 c 0.400183,-0.180907 0.727604,-0.473881 0.727604,-0.651055 z m 1.5875,-1.312719 c 0,-0.07276 -0.05953,-0.132291 -0.132291,-0.132291 -0.07276,0 -0.132292,0.05953 -0.132292,0.132291 0,0.07276 0.05953,0.132292 0.132292,0.132292 0.07276,0 0.132291,-0.05953 0.132291,-0.132292 z m -1.852083,4.630209 c 0,-0.194028 0.07937,-0.273403 0.176389,-0.176389 0.09701,0.09701 0.09701,0.255764 0,0.352778 -0.09701,0.09701 -0.176389,0.01764 -0.176389,-0.176389 z m 6.370888,-0.683507 c 0.0127,-0.308225 0.07539,-0.370919 0.159853,-0.159853 0.07643,0.190997 0.06703,0.4192 -0.02089,0.507119 -0.08792,0.08792 -0.150453,-0.06835 -0.138965,-0.347266 z m -0.503683,-2.130211 c -0.324075,-1.211681 -0.257549,-1.972624 0.07959,-0.910388 0.09585,0.302008 0.285318,0.549106 0.421033,0.549106 0.135714,0 0.246753,0.357187 0.246753,0.79375 0,1.178441 -0.374482,0.961748 -0.747378,-0.432468 z m -13.360362,0.244689 c -0.0758,-0.122642 0.03102,-0.934236 0.237372,-1.803541 0.206351,-0.869305 0.545948,-3.411918 0.75466,-5.650251 0.36002,-3.861049 0.978514,-6.356412 0.732503,-2.955344 -0.152265,2.105043 0.083,3.019547 0.733079,2.849548 0.40019,-0.104652 0.487832,0.0056 0.451022,0.567591 -0.06022,0.919326 -0.464169,1.361264 -0.989627,1.082693 -0.342493,-0.181573 -0.399778,-0.07292 -0.328726,0.623491 0.07056,0.69158 0.04141,0.748137 -0.161943,0.314217 -0.214694,-0.458119 -0.250487,-0.416036 -0.266587,0.313431 -0.03844,1.741605 -0.879665,5.114592 -1.161753,4.658165 z m 2.201491,-6.82368 c 0,-0.07276 -0.05953,-0.132291 -0.132292,-0.132291 -0.07276,0 -0.132292,0.05953 -0.132292,0.132291 0,0.07276 0.05953,0.132292 0.132292,0.132292 0.07276,0 0.132292,-0.05953 0.132292,-0.132292 z m -0.618522,-0.992187 c -0.0734,-0.181901 -0.133452,-0.03307 -0.133452,0.330729 0,0.363802 0.06005,0.51263 0.133452,0.330729 0.0734,-0.181901 0.0734,-0.479557 0,-0.661458 z m 6.654329,3.589572 c 0.190996,-0.07643 0.419199,-0.06703 0.507118,0.02089 0.08792,0.08792 -0.06835,0.150453 -0.347266,0.138964 -0.308224,-0.01269 -0.370919,-0.07539 -0.159852,-0.159852 z m -5.242058,-3.920301 c 0,-0.07276 0.05953,-0.132292 0.132292,-0.132292 0.07276,0 0.132292,0.05953 0.132292,0.132292 0,0.07276 -0.05953,0.132291 -0.132292,0.132291 -0.07276,0 -0.132292,-0.05953 -0.132292,-0.132291 z m 27.252088,-0.264584 c 0,-0.07276 0.0595,-0.132291 0.13229,-0.132291 0.0728,0 0.13229,0.05953 0.13229,0.132291 0,0.07276 -0.0595,0.132292 -0.13229,0.132292 -0.0728,0 -0.13229,-0.05953 -0.13229,-0.132292 z M 75.055404,56.94169 c 0.02755,-0.50118 0.468513,-1.345102 0.483871,-0.926042 0.008,0.218282 -0.100872,0.575469 -0.241936,0.79375 -0.141064,0.218282 -0.249935,0.277813 -0.241935,0.132292 z m -0.816398,-0.396875 c 0,-0.194028 0.07937,-0.273403 0.176389,-0.176389 0.09701,0.09701 0.09701,0.255764 0,0.352778 -0.09701,0.09701 -0.176389,0.01764 -0.176389,-0.176389 z m 0.264583,-0.79375 c 0,-0.194028 0.07937,-0.273403 0.176389,-0.176389 0.09701,0.09701 0.09701,0.255764 0,0.352778 -0.09701,0.09701 -0.176389,0.01764 -0.176389,-0.176389 z m 1.058333,-0.529167 c 0,-0.194027 0.07938,-0.273402 0.176389,-0.176389 0.09701,0.09701 0.09701,0.255764 0,0.352778 -0.09701,0.09701 -0.176389,0.01764 -0.176389,-0.176389 z m 1.058334,-1.719791 c 0,-0.07276 0.05953,-0.132292 0.132291,-0.132292 0.07276,0 0.132292,0.05953 0.132292,0.132292 0,0.07276 -0.05953,0.132291 -0.132292,0.132291 -0.07276,0 -0.132291,-0.05953 -0.132291,-0.132291 z m -3.704167,-0.367365 c 0,-0.515456 1.413887,-1.352427 2.28464,-1.352427 0.899587,0 1.236776,0.548423 0.584896,0.951307 -0.189256,0.116967 -0.233643,0.07258 -0.116676,-0.116677 0.34273,-0.554549 -1.545575,-0.351273 -2.173803,0.23401 -0.318481,0.296711 -0.579057,0.424415 -0.579057,0.283787 z m 26.72292,-9.157636 c 0,-0.07276 0.0595,-0.132291 0.13229,-0.132291 0.0728,0 0.13229,0.05953 0.13229,0.132291 0,0.07276 -0.0595,0.132292 -0.13229,0.132292 -0.0728,0 -0.13229,-0.05953 -0.13229,-0.132292 z m 0.529161,-1.058333 c 0,-0.07276 0.0595,-0.132292 0.1323,-0.132292 0.0728,0 0.13229,0.05953 0.13229,0.132292 0,0.07276 -0.0595,0.132292 -0.13229,0.132292 -0.0728,0 -0.1323,-0.05953 -0.1323,-0.132292 z M 87.217501,31.740127 c -0.629373,-2.266263 -0.1674,-4.400942 1.290715,-5.964118 0.734889,-0.78784 1.123226,-1.019926 1.478483,-0.883601 0.427894,0.164198 0.374917,0.294909 -0.47344,1.168126 -1.162652,1.19672 -1.51592,2.073639 -1.51592,3.762973 0,1.31699 0.340806,1.929214 0.639962,1.149627 0.09143,-0.238274 0.224535,-0.374933 0.295781,-0.303688 0.249289,0.249289 -0.681866,2.062869 -1.059149,2.062869 -0.214762,0 -0.501067,-0.432746 -0.656432,-0.992188 z m 0.42706,-1.036285 c -0.09701,-0.09701 -0.176389,-0.01764 -0.176389,0.176389 0,0.194028 0.07938,0.273403 0.176389,0.176389 0.09701,-0.09701 0.09701,-0.255764 0,-0.352778 z m 0.08819,-2.337152 c 0,-0.07276 -0.05953,-0.132292 -0.132292,-0.132292 -0.07276,0 -0.132292,0.05953 -0.132292,0.132292 0,0.07276 0.05953,0.132291 0.132292,0.132291 0.07276,0 0.132292,-0.05953 0.132292,-0.132291 z m 0.264588,-0.79375 c 0,-0.07276 -0.05953,-0.132292 -0.132292,-0.132292 -0.07276,0 -0.132291,0.05953 -0.132291,0.132292 0,0.07276 0.05953,0.132291 0.132291,0.132291 0.07276,0 0.132292,-0.05953 0.132292,-0.132291 z m 0.529167,-1.058334 c 0,-0.07276 -0.05953,-0.132292 -0.132292,-0.132292 -0.07276,0 -0.132292,0.05953 -0.132292,0.132292 0,0.07276 0.05953,0.132292 0.132292,0.132292 0.07276,0 0.132292,-0.05953 0.132292,-0.132292 z m 1.190625,-1.190625 c 0.08994,-0.145521 0.10399,-0.264583 0.03123,-0.264583 -0.07276,0 -0.205877,0.119062 -0.295814,0.264583 -0.08994,0.145521 -0.10399,0.264583 -0.03123,0.264583 0.07276,0 0.205876,-0.119062 0.295814,-0.264583 z m 4.365625,7.276042 c 0,-0.07276 0.05953,-0.132292 0.132291,-0.132292 0.07276,0 0.132292,0.05953 0.132292,0.132292 0,0.07276 -0.05953,0.132292 -0.132292,0.132292 -0.07276,0 -0.132291,-0.05953 -0.132291,-0.132292 z M 89.960922,28.11346 c -0.08974,-0.357557 -0.10141,-0.804042 -0.02593,-0.992187 0.07548,-0.188146 0.146636,-0.0076 0.158125,0.401136 0.01175,0.418225 0.135259,0.672533 0.28244,0.58157 0.149982,-0.09269 0.194339,0.01351 0.103985,0.248969 -0.217788,0.567544 -0.328953,0.516211 -0.518621,-0.239488 z m 18.497528,-2.436701 c 0.097,-0.09701 0.25576,-0.09701 0.35278,0 0.097,0.09701 0.0176,0.176389 -0.17639,0.176389 -0.19403,0 -0.2734,-0.07937 -0.17639,-0.176389 z M 96.728589,19.203431 c 0,-0.776613 1.45528,-2.191226 2.00463,-1.948607 l 0.50891,0.224759 -0.5828,0.102503 c -0.32054,0.05638 -0.651,0.317383 -0.73436,0.580014 -0.22034,0.694215 -1.19638,1.543767 -1.19638,1.041331 z"
             id="path1" /><path
             style="fill:none;stroke:#000000;stroke-width:0.776;stroke-linecap:butt;stroke-linejoin:miter;stroke-dasharray:none;stroke-opacity:1"
             d="M 82.498463,90.999333 76.579907,68.974663"
             id="path2" /><path
             style="fill:none;stroke:#000000;stroke-width:0.165;stroke-linecap:butt;stroke-linejoin:miter;stroke-dasharray:none;stroke-opacity:1"
             d="M 100.05236,35.628788 103.509,29.969073"
             id="path6" /><path
             style="fill:none;stroke:#000000;stroke-width:0.1;stroke-linecap:butt;stroke-linejoin:miter;stroke-dasharray:none;stroke-opacity:1"
             d="m 90.249712,25.147518 2.947746,-0.139806"
             id="path7" /><path
             style="fill:none;stroke:#000000;stroke-width:0.264583px;stroke-linecap:butt;stroke-linejoin:miter;stroke-opacity:1"
             d="m 98.884227,121.08 2.030663,-8.18619"
             id="path8" /><path
             style="fill:none;stroke:#000000;stroke-width:0.264583px;stroke-linecap:butt;stroke-linejoin:miter;stroke-opacity:1"
             d="m 106.90246,125.85632 4.05105,0.068 4.01891,-0.35588 3.09446,-1.14178 1.92966,-1.61267"
             id="path9"
             sodipodi:nodetypes="ccccc" /></g></g></g><circle
       style="fill:#000000;fill-opacity:1;stroke:#000000;stroke-width:0.1;stroke-dasharray:none;stroke-opacity:1"
       id="path53"
       cx="135.39825"
       cy="62.496243"
       r="1.452373" /><circle
       style="fill:#000000;fill-opacity:1;stroke:#000000;stroke-width:0.1;stroke-dasharray:none;stroke-opacity:1"
       id="path53-9"
       cx="91.480682"
       cy="71.949455"
       r="1.452373" /><circle
       style="fill:#0050b4;fill-opacity:1;stroke:none;stroke-width:0.1;stroke-dasharray:none;stroke-opacity:1"
       id="path53-3-2"
       cx="134.96773"
       cy="90.529884"
       r="1.452373" /><circle
       style="fill:#000000;fill-opacity:1;stroke:#000000;stroke-width:0.1;stroke-dasharray:none;stroke-opacity:1"
       id="path53-2"
       cx="184.68948"
       cy="131.69502"
       r="1.452373" /><text
       xml:space="preserve"
       style="font-style:normal;font-weight:normal;font-size:4.93889px;line-height:1.25;font-family:sans-serif;fill:#000000;fill-opacity:1;stroke:none;stroke-width:0.264583"
       x="86.826965"
       y="65.336876"
       id="text60"><tspan
         sodipodi:role="line"
         id="tspan60"
         style="font-size:4.93889px;stroke-width:0.264583"
         x="86.826965"
         y="65.336876">C1</tspan></text><text
       xml:space="preserve"
       style="font-style:normal;font-weight:normal;font-size:4.93889px;line-height:1.25;font-family:sans-serif;fill:#000000;fill-opacity:1;stroke:none;stroke-width:0.264583"
       x="182.34816"
       y="62.59441"
       id="text60-6"><tspan
         sodipodi:role="line"
         id="tspan60-1"
         style="font-size:4.93889px;stroke-width:0.264583"
         x="182.34816"
         y="62.59441">C6</tspan></text><text
       xml:space="preserve"
       style="font-style:normal;font-weight:normal;font-size:4.93889px;line-height:1.25;font-family:sans-serif;fill:#000000;fill-opacity:1;stroke:none;stroke-width:0.264583"
       x="133.82835"
       y="59.333992"
       id="text60-3"><tspan
         sodipodi:role="line"
         id="tspan60-7"
         style="font-size:4.93889px;stroke-width:0.264583"
         x="133.82835"
         y="59.333992">C2</tspan></text><text
       xml:space="preserve"
       style="font-style:normal;font-weight:normal;font-size:4.93889px;line-height:1.25;font-family:sans-serif;fill:#000000;fill-opacity:1;stroke:none;stroke-width:0.264583"
       x="121.80181"
       y="91.168945"
       id="text60-3-5"><tspan
         sodipodi:role="line"
         id="tspan60-7-4"
         style="font-size:4.93889px;stroke-width:0.264583"
         x="121.80181"
         y="91.168945">C10</tspan></text><text
       xml:space="preserve"
       style="font-style:normal;font-weight:normal;font-size:4.93889px;line-height:1.25;font-family:sans-serif;fill:#000000;fill-opacity:1;stroke:none;stroke-width:0.264583"
       x="164.92859"
       y="146.50494"
       id="text60-3-5-3"><tspan
         sodipodi:role="line"
         id="tspan60-7-4-0"
         style="font-size:4.93889px;stroke-width:0.264583"
         x="164.92859"
         y="146.50494">C14</tspan></text><text
       xml:space="preserve"
       style="font-style:normal;font-weight:normal;font-size:4.93889px;line-height:1.25;font-family:sans-serif;fill:#000000;fill-opacity:1;stroke:none;stroke-width:0.264583"
       x="149.72882"
       y="112.34538"
       id="text60-3-5-3-2"><tspan
         sodipodi:role="line"
         id="tspan60-7-4-0-0"
         style="font-size:4.93889px;stroke-width:0.264583"
         x="149.72882"
         y="112.34538">C10-C14</tspan></text><text
       xml:space="preserve"
       style="font-style:normal;font-weight:normal;font-size:4.93889px;line-height:1.25;font-family:sans-serif;fill:#000000;fill-opacity:1;stroke:none;stroke-width:0.264583"
       x="80.932373"
       y="131.31371"
       id="text60-3-5-3-8-93"><tspan
         sodipodi:role="line"
         id="tspan60-7-4-0-8-6"
         style="font-size:4.93889px;stroke-width:0.264583"
         x="80.932373"
         y="131.31371">C3</tspan></text><text
       xml:space="preserve"
       style="font-style:normal;font-weight:normal;font-size:4.93889px;line-height:1.25;font-family:sans-serif;fill:#000000;fill-opacity:1;stroke:none;stroke-width:0.264583"
       x="142.8389"
       y="155.26279"
       id="text60-3-5-3-8-9"><tspan
         sodipodi:role="line"
         id="tspan60-7-4-0-8-1"
         style="font-size:4.93889px;stroke-width:0.264583"
         x="142.8389"
         y="155.26279">C7</tspan></text><text
       xml:space="preserve"
       style="font-style:normal;font-weight:normal;font-size:4.93889px;line-height:1.25;font-family:sans-serif;fill:#000000;fill-opacity:1;stroke:none;stroke-width:0.264583"
       x="187.47951"
       y="134.24994"
       id="text60-3-5-3-8-4"><tspan
         sodipodi:role="line"
         id="tspan60-7-4-0-8-9"
         style="font-size:4.93889px;stroke-width:0.264583"
         x="187.47951"
         y="134.24994">C8</tspan></text><circle
       style="fill:#000000;fill-opacity:1;stroke:#000000;stroke-width:0.1;stroke-dasharray:none;stroke-opacity:1"
       id="path53-29"
       cx="134.18037"
       cy="116.90205"
       r="1.452373" /><g
       sodipodi:type="inkscape:box3d"
       id="g37"
       style="mix-blend-mode:normal;fill:#ffffff;fill-opacity:0.417283;stroke:#000000;stroke-width:0.3;stroke-dasharray:none;stroke-opacity:1;filter:url(#filter11)"
       inkscape:perspectiveID="#perspective9"
       inkscape:corner0="-2.8098656 : 0.15852194 : -0.27284001 : 1"
       inkscape:corner7="-3.0409954 : 0.12930085 : 0.12672629 : 1"><path
         sodipodi:type="inkscape:box3dside"
         id="path39"
         style="fill:#ffffff;fill-opacity:0.417283;fill-rule:evenodd;stroke:#000000;stroke-width:0.3;stroke-linejoin:round;stroke-dasharray:none;stroke-opacity:1"
         inkscape:box3dsidetype="3"
         d="m 89.854299,132.0808 44.124781,-15.48947 1.14555,-54.391946 -43.997659,9.453283 z"
         points="133.97908,116.59133 135.12463,62.199384 91.126971,71.652667 89.854299,132.0808 " /><path
         sodipodi:type="inkscape:box3dside"
         id="path40"
         style="fill:#ffffff;fill-opacity:0.417283;fill-rule:evenodd;stroke:#000000;stroke-width:0.3;stroke-linejoin:round;stroke-dasharray:none;stroke-opacity:1"
         inkscape:box3dsidetype="14"
         d="m 133.97908,116.59133 1.14555,-54.391946 50.77702,3.547007 -1.38465,65.745209 z"
         points="135.12463,62.199384 185.90165,65.746391 184.517,131.4916 133.97908,116.59133 " /><path
         sodipodi:type="inkscape:box3dside"
         id="path38"
         style="fill:#ffffff;fill-opacity:0.417283;fill-rule:evenodd;stroke:#000000;stroke-width:0.3;stroke-linejoin:round;stroke-dasharray:none;stroke-opacity:1"
         inkscape:box3dsidetype="5"
         d="M 89.854299,132.0808 133.97908,116.59133 184.517,131.4916 136.85718,152.70428 Z"
         points="133.97908,116.59133 184.517,131.4916 136.85718,152.70428 89.854299,132.0808 " /><path
         sodipodi:type="inkscape:box3dside"
         id="path42"
         style="fill:#ffffff;fill-opacity:0.417283;fill-rule:evenodd;stroke:#000000;stroke-width:0.3;stroke-linejoin:round;stroke-dasharray:none;stroke-opacity:1"
         inkscape:box3dsidetype="11"
         d="M 136.85718,152.70428 184.517,131.4916 185.90165,65.746391 138.43197,77.9309 Z"
         points="184.517,131.4916 185.90165,65.746391 138.43197,77.9309 136.85718,152.70428 " /><path
         sodipodi:type="inkscape:box3dside"
         id="path37"
         style="fill:#ffffff;fill-opacity:0.417283;fill-rule:evenodd;stroke:#000000;stroke-width:0.3;stroke-linejoin:round;stroke-dasharray:none;stroke-opacity:1"
         inkscape:box3dsidetype="6"
         d="m 89.854299,132.0808 1.272672,-60.428133 47.304999,6.278233 -1.57479,74.77338 z"
         points="91.126971,71.652667 138.43197,77.9309 136.85718,152.70428 89.854299,132.0808 " /><path
         sodipodi:type="inkscape:box3dside"
         id="path41"
         style="fill:#ffffff;fill-opacity:0.417283;fill-rule:evenodd;stroke:#000000;stroke-width:0.3;stroke-linejoin:round;stroke-dasharray:none;stroke-opacity:1"
         inkscape:box3dsidetype="13"
         d="M 91.126971,71.652667 135.12463,62.199384 185.90165,65.746391 138.43197,77.9309 Z"
         points="135.12463,62.199384 185.90165,65.746391 138.43197,77.9309 91.126971,71.652667 " /></g><circle
       style="fill:#000000;fill-opacity:1;stroke:#000000;stroke-width:0.1;stroke-dasharray:none;stroke-opacity:1"
       id="path53-4"
       cx="90.220604"
       cy="132.36235"
       r="1.452373" /><circle
       style="fill:#000000;fill-opacity:1;stroke:#000000;stroke-width:0.1;stroke-dasharray:none;stroke-opacity:1"
       id="path53-3-6"
       cx="137.01785"
       cy="153.04422"
       r="1.452373" /><circle
       style="fill:#000000;fill-opacity:1;stroke:#000000;stroke-width:0.1;stroke-dasharray:none;stroke-opacity:1"
       id="path53-3"
       cx="138.74713"
       cy="78.403831"
       r="1.452373" /><circle
       style="fill:#000000;fill-opacity:1;stroke:#000000;stroke-width:0.1;stroke-dasharray:none;stroke-opacity:1"
       id="path53-6"
       cx="185.87192"
       cy="66.133659"
       r="1.452373" /><circle
       style="fill:#007100;fill-opacity:1;stroke:none;stroke-width:0.1;stroke-dasharray:none;stroke-opacity:1"
       id="path53-7"
       cx="163.09531"
       cy="141.56599"
       r="1.452373" /><text
       xml:space="preserve"
       style="font-style:normal;font-weight:normal;font-size:4.93889px;line-height:1.25;font-family:sans-serif;fill:#000000;fill-opacity:1;stroke:none;stroke-width:0.264583"
       x="137.03946"
       y="74.976883"
       id="text60-3-5-3-8-5"><tspan
         sodipodi:role="line"
         id="tspan60-7-4-0-8-3"
         style="font-size:4.93889px;stroke-width:0.264583"
         x="137.03946"
         y="74.976883">C5</tspan></text><path
       style="opacity:1;fill:none;stroke:#0050b4;stroke-width:0.548;stroke-linecap:butt;stroke-linejoin:miter;stroke-miterlimit:4;stroke-dasharray:none;stroke-dashoffset:0;stroke-opacity:0.649835;marker-end:url(#DartArrow)"
       d="M 135.33961,90.323243 160.42259,137.5478"
       id="path60" /><path
       style="fill:none;stroke:#000000;stroke-width:0.209;stroke-linecap:butt;stroke-linejoin:miter;stroke-dasharray:none;stroke-opacity:1;marker-end:url(#Triangle)"
       d="m 172.39417,78.86641 12.05166,-3.198763"
       id="path15" /><path
       style="fill:none;stroke:#000000;stroke-width:0.173;stroke-linecap:butt;stroke-linejoin:miter;stroke-dasharray:none;stroke-opacity:1;marker-start:url(#marker16)"
       d="m 140.39207,87.711669 15.23235,-4.305831"
       id="path15-5" /><g
       inkscape:label=""
       transform="matrix(0.98743474,-0.20577284,0.20763059,0.97859978,158.8973,80.727257)"
       id="g25"><g
   id="g24"
   transform="matrix(0.352778,0,0,0.352778,-0.851914,-0.624902)">
    <g
   style="fill:#000000;fill-opacity:1"
   id="g7">
      <g
   id="g20"
   transform="translate(1.993,8.4119997)">
        <path
   style="stroke:none"
   d="m 2.890625,-3.515625 c 0.8125,-0.265625 1.390625,-0.953125 1.390625,-1.75 0,-0.8125 -0.875,-1.375 -1.828125,-1.375 -1,0 -1.765625,0.59375 -1.765625,1.359375 0,0.328125 0.21875,0.515625 0.515625,0.515625 0.296875,0 0.5,-0.21875 0.5,-0.515625 0,-0.484375 -0.46875,-0.484375 -0.609375,-0.484375 0.296875,-0.5 0.953125,-0.625 1.3125,-0.625 0.421875,0 0.96875,0.21875 0.96875,1.109375 0,0.125 -0.03125,0.703125 -0.28125,1.140625 C 2.796875,-3.65625 2.453125,-3.625 2.203125,-3.625 2.125,-3.609375 1.890625,-3.59375 1.8125,-3.59375 c -0.078125,0.015625 -0.140625,0.03125 -0.140625,0.125 0,0.109375 0.0625,0.109375 0.234375,0.109375 h 0.4375 c 0.8125,0 1.1875,0.671875 1.1875,1.65625 0,1.359375 -0.6875,1.640625 -1.125,1.640625 -0.4375,0 -1.1875,-0.171875 -1.53125,-0.75 0.34375,0.046875 0.65625,-0.171875 0.65625,-0.546875 0,-0.359375 -0.265625,-0.5625 -0.546875,-0.5625 -0.25,0 -0.5625,0.140625 -0.5625,0.578125 0,0.90625 0.921875,1.5625 2.015625,1.5625 1.21875,0 2.125,-0.90625 2.125,-1.921875 0,-0.8125 -0.640625,-1.59375 -1.671875,-1.8125 z m 0,0"
   id="path20" />
      </g>
      <g
   id="g21"
   transform="translate(6.9742999,8.4119997)">
        <path
   style="stroke:none"
   d="m 4.578125,-3.1875 c 0,-0.796875 -0.046875,-1.59375 -0.390625,-2.328125 -0.453125,-0.96875 -1.28125,-1.125 -1.6875,-1.125 -0.609375,0 -1.328125,0.265625 -1.75,1.1875 -0.3125,0.6875 -0.359375,1.46875 -0.359375,2.265625 0,0.75 0.03125,1.640625 0.453125,2.40625 0.421875,0.796875 1.15625,1 1.640625,1 0.53125,0 1.296875,-0.203125 1.734375,-1.15625 0.3125,-0.6875 0.359375,-1.46875 0.359375,-2.25 z M 2.484375,0 C 2.09375,0 1.5,-0.25 1.328125,-1.203125 1.21875,-1.796875 1.21875,-2.71875 1.21875,-3.3125 c 0,-0.640625 0,-1.296875 0.078125,-1.828125 0.1875,-1.1875 0.9375,-1.28125 1.1875,-1.28125 0.328125,0 0.984375,0.1875 1.171875,1.171875 0.109375,0.5625 0.109375,1.3125 0.109375,1.9375 0,0.75 0,1.421875 -0.109375,2.0625 C 3.5,-0.296875 2.9375,0 2.484375,0 Z m 0,0"
   id="path21" />
      </g>
      <g
   id="g22"
   transform="translate(11.9556,8.4119997)">
        <path
   style="stroke:none"
   d="m 4.578125,-3.1875 c 0,-0.796875 -0.046875,-1.59375 -0.390625,-2.328125 -0.453125,-0.96875 -1.28125,-1.125 -1.6875,-1.125 -0.609375,0 -1.328125,0.265625 -1.75,1.1875 -0.3125,0.6875 -0.359375,1.46875 -0.359375,2.265625 0,0.75 0.03125,1.640625 0.453125,2.40625 0.421875,0.796875 1.15625,1 1.640625,1 0.53125,0 1.296875,-0.203125 1.734375,-1.15625 0.3125,-0.6875 0.359375,-1.46875 0.359375,-2.25 z M 2.484375,0 C 2.09375,0 1.5,-0.25 1.328125,-1.203125 1.21875,-1.796875 1.21875,-2.71875 1.21875,-3.3125 c 0,-0.640625 0,-1.296875 0.078125,-1.828125 0.1875,-1.1875 0.9375,-1.28125 1.1875,-1.28125 0.328125,0 0.984375,0.1875 1.171875,1.171875 0.109375,0.5625 0.109375,1.3125 0.109375,1.9375 0,0.75 0,1.421875 -0.109375,2.0625 C 3.5,-0.296875 2.9375,0 2.484375,0 Z m 0,0"
   id="path22" />
      </g>
    </g>
    <g
   style="fill:#000000;fill-opacity:1"
   id="g9">
      <g
   id="g23"
   transform="translate(16.937,8.4119997)">
        <path
   style="stroke:none"
   d="m 0.875,-0.59375 c -0.03125,0.15625 -0.09375,0.390625 -0.09375,0.4375 0,0.171875 0.140625,0.265625 0.296875,0.265625 0.125,0 0.296875,-0.078125 0.375,-0.28125 0,-0.015625 0.125,-0.484375 0.1875,-0.734375 l 0.21875,-0.890625 C 1.90625,-2.03125 1.96875,-2.25 2.03125,-2.46875 c 0.03125,-0.171875 0.109375,-0.46875 0.125,-0.5 0.140625,-0.3125 0.671875,-1.21875 1.625,-1.21875 0.453125,0 0.53125,0.375 0.53125,0.703125 0,0.25 -0.0625,0.53125 -0.140625,0.828125 L 3.890625,-1.5 3.6875,-0.75 c -0.03125,0.203125 -0.125,0.546875 -0.125,0.59375 0,0.171875 0.140625,0.265625 0.28125,0.265625 0.3125,0 0.375,-0.25 0.453125,-0.5625 0.140625,-0.5625 0.515625,-2.015625 0.59375,-2.40625 0.03125,-0.125 0.5625,-1.328125 1.65625,-1.328125 0.421875,0 0.53125,0.34375 0.53125,0.703125 0,0.5625 -0.421875,1.703125 -0.625,2.234375 -0.078125,0.234375 -0.125,0.34375 -0.125,0.546875 0,0.46875 0.34375,0.8125 0.8125,0.8125 0.9375,0 1.3125,-1.453125 1.3125,-1.53125 0,-0.109375 -0.09375,-0.109375 -0.125,-0.109375 -0.09375,0 -0.09375,0.03125 -0.140625,0.1875 -0.15625,0.53125 -0.46875,1.234375 -1.015625,1.234375 -0.171875,0 -0.25,-0.09375 -0.25,-0.328125 0,-0.25 0.09375,-0.484375 0.1875,-0.703125 0.1875,-0.53125 0.609375,-1.625 0.609375,-2.203125 0,-0.640625 -0.40625,-1.0625 -1.15625,-1.0625 -0.734375,0 -1.25,0.4375 -1.625,0.96875 0,-0.125 -0.03125,-0.46875 -0.3125,-0.703125 -0.25,-0.21875 -0.5625,-0.265625 -0.8125,-0.265625 -0.90625,0 -1.390625,0.640625 -1.5625,0.875 -0.046875,-0.578125 -0.46875,-0.875 -0.921875,-0.875 -0.453125,0 -0.640625,0.390625 -0.734375,0.5625 -0.171875,0.359375 -0.296875,0.9375 -0.296875,0.96875 0,0.109375 0.09375,0.109375 0.109375,0.109375 0.109375,0 0.109375,-0.015625 0.171875,-0.234375 0.171875,-0.703125 0.375,-1.1875 0.734375,-1.1875 0.15625,0 0.296875,0.078125 0.296875,0.453125 0,0.21875 -0.03125,0.328125 -0.15625,0.84375 z m 0,0"
   id="path23" />
      </g>
      <g
   id="use9"
   transform="translate(25.684162,8.4119997)">
        <path
   style="stroke:none"
   d="m 0.875,-0.59375 c -0.03125,0.15625 -0.09375,0.390625 -0.09375,0.4375 0,0.171875 0.140625,0.265625 0.296875,0.265625 0.125,0 0.296875,-0.078125 0.375,-0.28125 0,-0.015625 0.125,-0.484375 0.1875,-0.734375 l 0.21875,-0.890625 C 1.90625,-2.03125 1.96875,-2.25 2.03125,-2.46875 c 0.03125,-0.171875 0.109375,-0.46875 0.125,-0.5 0.140625,-0.3125 0.671875,-1.21875 1.625,-1.21875 0.453125,0 0.53125,0.375 0.53125,0.703125 0,0.25 -0.0625,0.53125 -0.140625,0.828125 L 3.890625,-1.5 3.6875,-0.75 c -0.03125,0.203125 -0.125,0.546875 -0.125,0.59375 0,0.171875 0.140625,0.265625 0.28125,0.265625 0.3125,0 0.375,-0.25 0.453125,-0.5625 0.140625,-0.5625 0.515625,-2.015625 0.59375,-2.40625 0.03125,-0.125 0.5625,-1.328125 1.65625,-1.328125 0.421875,0 0.53125,0.34375 0.53125,0.703125 0,0.5625 -0.421875,1.703125 -0.625,2.234375 -0.078125,0.234375 -0.125,0.34375 -0.125,0.546875 0,0.46875 0.34375,0.8125 0.8125,0.8125 0.9375,0 1.3125,-1.453125 1.3125,-1.53125 0,-0.109375 -0.09375,-0.109375 -0.125,-0.109375 -0.09375,0 -0.09375,0.03125 -0.140625,0.1875 -0.15625,0.53125 -0.46875,1.234375 -1.015625,1.234375 -0.171875,0 -0.25,-0.09375 -0.25,-0.328125 0,-0.25 0.09375,-0.484375 0.1875,-0.703125 0.1875,-0.53125 0.609375,-1.625 0.609375,-2.203125 0,-0.640625 -0.40625,-1.0625 -1.15625,-1.0625 -0.734375,0 -1.25,0.4375 -1.625,0.96875 0,-0.125 -0.03125,-0.46875 -0.3125,-0.703125 -0.25,-0.21875 -0.5625,-0.265625 -0.8125,-0.265625 -0.90625,0 -1.390625,0.640625 -1.5625,0.875 -0.046875,-0.578125 -0.46875,-0.875 -0.921875,-0.875 -0.453125,0 -0.640625,0.390625 -0.734375,0.5625 -0.171875,0.359375 -0.296875,0.9375 -0.296875,0.96875 0,0.109375 0.09375,0.109375 0.109375,0.109375 0.109375,0 0.109375,-0.015625 0.171875,-0.234375 0.171875,-0.703125 0.375,-1.1875 0.734375,-1.1875 0.15625,0 0.296875,0.078125 0.296875,0.453125 0,0.21875 -0.03125,0.328125 -0.15625,0.84375 z m 0,0"
   id="path13" />
      </g>
    </g>
  </g>
</g></g></svg>
